<svg width="32" height="32" viewBox="0 0 32 32" xmlns="http://www.w3.org/2000/svg">
    <g clip-path="url(#clip0_1901_956)">
        <path d="M10.375 12.25C10.375 15.3516 12.8984 17.875 16 17.875C19.1016 17.875 21.625 15.3516 21.625 12.25C21.625 9.14838 19.1016 6.625 16 6.625C12.8984 6.625 10.375 9.14838 10.375 12.25ZM20.375 12.25C20.375 14.6624 18.4124 16.625 16 16.625C13.5876 16.625 11.625 14.6624 11.625 12.25C11.625 9.83763 13.5876 7.875 16 7.875C18.4124 7.875 20.375 9.83763 20.375 12.25Z"
        />
        <path d="M27.5 6.375C27.8452 6.375 28.125 6.09518 28.125 5.75C28.125 5.40482 27.8452 5.125 27.5 5.125C27.1548 5.125 26.875 5.40482 26.875 5.75C26.875 6.09518 27.1548 6.375 27.5 6.375Z"
        />
        <path d="M16 32C24.869 32 32 24.8171 32 16C32 13.0644 31.1996 10.1948 29.6856 7.70113C29.5064 7.40613 29.1221 7.31219 28.8269 7.49125C28.5319 7.67044 28.4379 8.05481 28.6171 8.34988C30.0124 10.6479 30.75 13.2933 30.75 16C30.75 20.2768 28.9518 24.2435 25.7827 27.0427C24.818 22.4921 20.783 19.125 16 19.125C11.217 19.125 7.18156 22.4925 6.21781 27.0432C3.04838 24.2437 1.25 20.2768 1.25 16C1.25 7.86681 7.86681 1.25 16 1.25C19.3118 1.25 22.4394 2.31969 25.0448 4.3435C25.3173 4.55525 25.71 4.50588 25.9217 4.23331C26.1335 3.96075 26.0842 3.56806 25.8116 3.35631C22.9849 1.16056 19.5921 0 16 0C11.7228 0 7.70387 1.6635 4.68356 4.684C1.66331 7.70438 0 11.7231 0 16C0 24.8393 7.15369 32 16 32V32ZM16 20.375C20.4186 20.375 24.0863 23.6025 24.6701 27.9379C22.1417 29.7787 19.1518 30.75 16 30.75C12.8485 30.75 9.859 29.7786 7.33056 27.9377C7.91356 23.6024 11.5809 20.375 16 20.375V20.375Z"
        />
    </g>
    <defs>
        <clipPath id="clip0_1901_956">
            <rect width="32" height="32" fill="white"/>
        </clipPath>
    </defs>
</svg>
