<svg width="25" height="24" viewBox="0 0 25 24" fill="none" xmlns="http://www.w3.org/2000/svg">
<g clip-path="url(#clip0_888_648)">
<path d="M23.8864 16.5992C23.0619 15.9514 19.0101 13.103 15.4354 10.5899C14.4178 9.87451 13.4391 9.1864 12.5851 8.58453C12.4264 8.47266 12.207 8.51056 12.0952 8.66931C11.9833 8.82806 12.0212 9.04742 12.1799 9.1593C13.0343 9.76135 14.0132 10.4496 15.0309 11.165C18.5985 13.6732 22.6422 16.5159 23.4519 17.1522C23.6429 17.3022 24.038 17.7658 23.5856 18.8287C23.1509 19.8505 22.2665 20.5984 21.8245 20.5371C21.4943 20.4911 20.7094 20.178 19.1595 18.5989C19.0235 18.4603 18.801 18.4581 18.6624 18.5942C18.5238 18.7302 18.5216 18.9529 18.6577 19.0915C19.9691 20.4276 20.973 21.1284 21.7272 21.2336C21.7748 21.2402 21.8234 21.2435 21.873 21.2435C22.2756 21.2435 22.7319 21.0245 23.1752 20.6151C23.6094 20.2139 23.9948 19.6631 24.2327 19.1041C24.6851 18.0406 24.559 17.1279 23.8864 16.5992Z" fill="#EDF2F7"/>
<path d="M17.2148 16.3847C17.095 16.2309 16.8649 16.2051 16.714 16.3291C16.1691 16.7771 14.4924 17.6031 12.3125 17.9124C10.5664 18.1601 8.00861 18.1407 5.73865 16.6425C5.5766 16.5356 5.35852 16.5801 5.2514 16.7423C5.14447 16.9044 5.18915 17.1224 5.3512 17.2294C6.25647 17.8269 7.20056 18.207 8.12561 18.4357V20.7111L6.46503 20.9629C6.27295 20.9918 6.14093 21.1711 6.17004 21.3632C6.19879 21.5527 6.3808 21.6867 6.57031 21.6582L7.55542 21.5087L7.04547 22.0729C6.9151 22.2168 6.92645 22.4391 7.07037 22.5695C7.21246 22.6978 7.4386 22.6865 7.56696 22.5444L8.73791 21.2491C8.73865 21.2485 8.73901 21.2476 8.73956 21.2471C8.79523 21.1845 8.82874 21.1024 8.82874 21.0134V18.5823C9.46246 18.6907 10.0799 18.7343 10.6611 18.7343C10.948 18.7343 11.2256 18.7233 11.4926 18.7048V21.0312L9.83197 21.2828C9.64008 21.3119 9.50806 21.4912 9.53717 21.6831C9.56592 21.8726 9.74792 22.0068 9.93744 21.978L10.9224 21.8288L10.4124 22.3928C10.2822 22.5369 10.2934 22.7592 10.4375 22.8894C10.5796 23.0179 10.8055 23.0065 10.9341 22.8645L12.105 21.5692C12.1056 21.5686 12.106 21.5679 12.1065 21.5671C12.1622 21.5047 12.1959 21.4225 12.1959 21.3333V18.6369C12.2687 18.6279 12.3409 18.6184 12.4114 18.6083C14.2787 18.3434 15.9774 17.6767 16.8727 17.0829C17.0531 17.3048 17.3375 17.6478 17.6885 18.046C17.8168 18.1916 18.0389 18.2057 18.1847 18.0773C18.3304 17.9488 18.3444 17.7267 18.216 17.5811C17.6268 16.9128 17.2188 16.3898 17.2148 16.3847Z" fill="#EDF2F7"/>
<path d="M4.23539 15.3635C3.37956 14.4419 2.73576 13.3654 2.34007 12.2089C2.75077 12.3864 3.20945 12.4025 3.64579 12.3274C4.63712 12.1573 5.21537 11.5335 5.29246 10.5615C5.61784 10.3275 5.83372 9.85146 5.86503 9.24099C5.92252 8.11892 5.31992 6.81466 3.86167 6.60244C3.30778 6.52187 2.79581 6.57534 2.34483 6.75607C2.97727 5.01895 4.17625 3.8608 5.55174 3.72494C7.13468 3.56875 8.35508 4.2618 9.17942 5.78488C9.67381 6.69839 10.3072 7.52493 11.0616 8.24197C11.2004 8.3738 11.4267 8.36813 11.5585 8.22933C11.6924 8.08853 11.6867 7.86587 11.5459 7.7322C10.8451 7.06625 10.257 6.29849 9.79795 5.45016C9.1298 4.21548 7.83854 2.79293 5.48271 3.02511C3.60056 3.21096 2.01377 4.92391 1.41904 7.3995C0.646889 8.23593 0.441078 9.47793 0.513588 10.3962C0.557534 10.9527 0.671608 11.6115 1.16764 11.7697C1.26872 11.8019 1.3751 11.8098 1.47984 11.7946C1.87186 13.2878 2.64072 14.6796 3.71995 15.8418C3.87467 16.0086 4.03654 16.1704 4.2006 16.3231C4.34086 16.4537 4.56718 16.4455 4.69755 16.3052C4.82975 16.1631 4.82188 15.9406 4.6796 15.8083C4.52799 15.6673 4.3784 15.5177 4.23539 15.3635ZM3.52677 11.6344C2.99851 11.725 2.58781 11.6278 2.28019 11.3379C2.56748 11.0812 2.88847 10.7236 3.2609 10.2777C3.39805 10.1135 3.47587 10.0613 3.50626 10.0456C3.54691 10.0716 3.62016 10.1433 3.67088 10.1928C3.85874 10.3768 4.12772 10.6385 4.56516 10.7047C4.46446 11.2321 4.12827 11.5311 3.52677 11.6344ZM2.04142 7.76956C2.39719 7.43612 2.84104 7.2684 3.36454 7.2684C3.4918 7.2684 3.62382 7.27828 3.76023 7.29806C4.93559 7.46908 5.19486 8.57723 5.16264 9.20492C5.13627 9.71963 4.93906 10.0119 4.81272 10.0172C4.50968 10.0302 4.34892 9.8727 4.16288 9.69033C3.99534 9.52645 3.78605 9.32156 3.47788 9.33785C3.15598 9.35378 2.9044 9.60757 2.72129 9.82693C2.33036 10.2948 2.03739 10.6108 1.79954 10.8216C1.54832 11.0444 1.42362 11.0874 1.3848 11.0957C1.35368 11.057 1.25846 10.8963 1.21452 10.3409C1.13432 9.3243 1.45878 8.31484 2.04142 7.76956Z" fill="#EDF2F7"/>
<path d="M9.15822 14.4645C9.82472 14.7743 10.6758 15.0369 11.6475 15.0369C12.6099 15.0369 13.6904 14.7793 14.8253 14.0546C14.989 13.9502 15.0368 13.7327 14.9324 13.5691C14.8279 13.4054 14.6105 13.3575 14.4469 13.462C12.8386 14.4887 11.1662 14.6149 9.47609 13.8368C8.18995 13.2449 7.36983 12.3259 7.35737 12.3118C7.22938 12.166 7.00746 12.1514 6.86152 12.2793C6.71541 12.4073 6.70076 12.6294 6.82875 12.7756C6.86519 12.8171 7.7408 13.8057 9.15822 14.4645Z" fill="#EDF2F7"/>
<path d="M7.59338 6.77704C7.59338 6.27991 7.28009 5.89062 6.87982 5.89062C6.47974 5.89062 6.16626 6.28009 6.16626 6.77704C6.16626 7.27399 6.47974 7.66345 6.87982 7.66345C7.28009 7.66345 7.59338 7.27399 7.59338 6.77704Z" fill="#EDF2F7"/>
</g>
<defs>
<clipPath id="clip0_888_648">
<rect width="24" height="24" fill="white" transform="translate(0.5)"/>
</clipPath>
</defs>
</svg>
