<svg width="24" height="23" viewBox="0 0 24 23" fill="none" xmlns="http://www.w3.org/2000/svg">
<path fill-rule="evenodd" clip-rule="evenodd" d="M4.01683 16.8409C4.33242 17.1574 4.49045 17.5981 4.44785 18.0431C4.35239 19.0401 4.13253 20.0778 3.85016 21.0417C5.94249 20.5581 7.22036 19.9972 7.80122 19.7028C8.13093 19.5357 8.51072 19.4963 8.86774 19.592C9.8545 19.8566 10.9061 20 12 20C17.9934 20 22.5 15.7887 22.5 11C22.5 6.21132 17.9934 2 12 2C6.0066 2 1.5 6.21132 1.5 11C1.5 13.2021 2.42596 15.2456 4.01683 16.8409ZM3.27734 22.6984C3.26724 22.7004 3.25712 22.7024 3.24699 22.7044C3.10925 22.7315 2.96883 22.7583 2.82573 22.7845C2.62499 22.8212 2.41896 22.857 2.20758 22.8916C1.90906 22.9405 1.68055 22.6282 1.79847 22.3496C1.87551 22.1676 1.95146 21.9769 2.02545 21.7791C2.07246 21.6535 2.11867 21.525 2.16388 21.3941C2.16583 21.3885 2.16777 21.3828 2.16972 21.3772C2.54133 20.2976 2.84395 19.0567 2.95468 17.9001C1.11459 16.0548 0 13.6413 0 11C0 5.20101 5.37258 0.5 12 0.5C18.6274 0.5 24 5.20101 24 11C24 16.799 18.6274 21.5 12 21.5C10.7749 21.5 9.59261 21.3394 8.47926 21.0408C7.70005 21.4357 6.02151 22.1545 3.27734 22.6984Z" fill="#EDF2F7"/>
</svg>
