<svg width="48" height="43" viewBox="0 0 48 43" fill="none" xmlns="http://www.w3.org/2000/svg">
<path fill-rule="evenodd" clip-rule="evenodd" d="M18.03 3.5C9.55 3.5 3.06 9.42 3.06 16.3C3.06 18.77 3.88 21.09 5.31 23.04C5.50473 23.2996 5.61 23.6154 5.61 23.94C5.61 25.57 5.18 27.16 4.65 28.61C4.29394 29.5572 3.90368 30.4911 3.48 31.41C6.79 31.08 8.98 30.01 10.28 28.45C10.4817 28.2111 10.7531 28.0413 11.0561 27.9642C11.3591 27.8871 11.6786 27.9066 11.97 28.02C13.9065 28.7513 15.96 29.124 18.03 29.12C26.5 29.11 33 23.18 33 16.3C33 9.43 26.5 3.5 18.03 3.5ZM0.0599987 16.3C0.0599987 7.4 8.3 0.5 18.03 0.5C27.75 0.5 36 7.38 36 16.3C36 25.23 27.75 32.11 18.03 32.11C15.86 32.11 13.78 31.78 11.86 31.16C9.6 33.3 6.31 34.34 2.26 34.5C1.89019 34.5091 1.52406 34.4247 1.19547 34.2548C0.866884 34.0849 0.586451 33.8349 0.380106 33.5278C0.17376 33.2208 0.0481654 32.8667 0.0149366 32.4983C-0.0182921 32.1299 0.0419181 31.759 0.189999 31.42L0.609999 30.47C1.04 29.51 1.47 28.57 1.83 27.57C2.24 26.46 2.52 25.39 2.59 24.39C0.949238 22.0144 0.0671212 19.1972 0.0599987 16.31V16.3Z" fill="#EDF2F7"/>
<path fill-rule="evenodd" clip-rule="evenodd" d="M39.01 12.27C38.8975 12.4321 38.818 12.6148 38.7762 12.8076C38.7344 13.0005 38.731 13.1997 38.7663 13.3938C38.8016 13.588 38.8749 13.7733 38.9819 13.939C39.0889 14.1048 39.2276 14.2479 39.39 14.36C42.83 16.74 44.94 20.34 44.94 24.31C44.94 26.78 44.13 29.09 42.69 31.04C42.4953 31.2996 42.39 31.6154 42.39 31.94C42.39 33.57 42.82 35.16 43.35 36.61C43.7 37.57 44.12 38.53 44.52 39.41C41.21 39.08 39.02 38.01 37.72 36.45C37.5183 36.2111 37.2469 36.0412 36.9439 35.9641C36.6409 35.8871 36.3214 35.9066 36.03 36.02C34.0935 36.7513 32.04 37.124 29.97 37.12C26.99 37.12 24.22 36.36 21.89 35.09C21.5426 34.9142 21.1404 34.8803 20.7685 34.9957C20.3966 35.111 20.0841 35.3665 19.8971 35.708C19.7101 36.0495 19.6632 36.4504 19.7664 36.8259C19.8696 37.2013 20.1147 37.522 20.45 37.72C22.8366 39.0008 25.4564 39.7884 28.1537 40.0358C30.8509 40.2832 33.5703 39.9853 36.15 39.16C38.4 41.3 41.69 42.34 45.74 42.5C46.1098 42.509 46.476 42.4247 46.8046 42.2548C47.1331 42.0849 47.4136 41.8348 47.6199 41.5278C47.8263 41.2208 47.9519 40.8667 47.9851 40.4982C48.0183 40.1298 47.9581 39.759 47.81 39.42L47.39 38.47C46.95 37.51 46.53 36.57 46.17 35.57C45.7685 34.551 45.5126 33.4804 45.41 32.39C47.0508 30.0143 47.9329 27.1971 47.94 24.31C47.94 19.21 45.22 14.75 41.1 11.89C40.9379 11.7774 40.7552 11.698 40.5624 11.6561C40.3695 11.6143 40.1703 11.611 39.9762 11.6463C39.782 11.6816 39.5967 11.7548 39.431 11.8619C39.2652 11.9689 39.1221 12.1076 39.01 12.27V12.27Z" fill="#EDF2F7"/>
</svg>
