<svg width="30" height="32" viewBox="0 0 30 32" xmlns="http://www.w3.org/2000/svg">
    <path d="M28.9175 3.1228C28.2018 2.98161 27.1175 2.84967 26.0163 3.02311C25.0181 3.18023 24.1889 3.55517 23.5448 4.13848C22.6387 3.5658 21.4701 3.10311 19.8826 2.82317C18.295 2.54311 17.0388 2.57836 15.9915 2.80667C15.5857 2.03817 14.9347 1.40223 14.0504 0.913172C13.075 0.373734 12.0109 0.126797 11.2901 0.0146092C10.7096 -0.0756408 10.1431 0.259797 9.94304 0.812234C9.38079 2.3643 9.26872 4.57273 10.1878 6.23842C9.75729 6.49686 9.29291 6.73205 8.77404 6.92492C8.2756 7.1103 7.89591 7.50517 7.73222 8.00842C7.57091 8.5043 7.64379 9.03786 7.9321 9.47217C8.30079 10.0274 8.71072 10.5598 9.15454 11.0612C8.86154 11.3062 8.6666 11.6389 8.59591 12.0114H2.57735C1.2056 12.0114 0.0896622 13.1273 0.0896622 14.499V23.7687C0.0896622 24.0276 0.299537 24.2374 0.558412 24.2374C0.817287 24.2374 1.02716 24.0276 1.02716 23.7687V14.499C1.02716 13.6442 1.72254 12.9488 2.57735 12.9488H8.55879C8.56347 13.0539 8.57122 13.1525 8.58285 13.234C8.69766 14.0374 9.39554 14.6431 10.206 14.6431H10.2062C10.284 14.6431 10.3627 14.6375 10.4399 14.6264C11.2701 14.5077 11.8737 13.772 11.8476 12.9488H14.0414C14.8962 12.9488 15.5916 13.6442 15.5916 14.499V14.8968V14.8992V29.5123C15.5916 30.3671 14.8962 31.0625 14.0414 31.0625H5.40047V29.1768C5.40047 27.8051 4.28454 26.6891 2.91279 26.6891H1.0271V25.9543C1.0271 25.6954 0.817225 25.4855 0.55835 25.4855C0.299475 25.4855 0.0895996 25.6954 0.0895996 25.9543V27.1579C0.0895996 29.8278 2.26179 32 4.93172 32H14.0413C15.4131 32 16.529 30.884 16.529 29.5123V22.1675C16.8345 22.2197 17.1326 22.2574 17.4228 22.2807C17.4942 23.1227 17.2625 23.7679 16.9963 24.1124C16.7282 24.4592 16.6111 24.8897 16.6668 25.3246C16.7225 25.7595 16.9442 26.1466 17.291 26.4147C17.5812 26.639 17.928 26.7575 18.294 26.7575C18.8066 26.7575 19.2802 26.525 19.5933 26.1199C20.4733 24.9815 20.8584 23.4219 20.672 21.7939C20.9608 21.6595 21.2307 21.5 21.4785 21.3137C22.4681 20.57 23.0624 19.467 23.249 18.0354C23.673 18.3071 23.9613 18.6592 24.1223 19.1017C24.3573 19.748 24.9773 20.1823 25.6648 20.1823C25.8562 20.1823 26.0448 20.1489 26.2258 20.0831C27.0762 19.7737 27.5165 18.83 27.2072 17.9796C26.8953 17.122 26.2487 16.0245 24.9125 15.2088C26.3052 14.7382 27.6271 14.0522 28.8382 13.1585C29.2577 12.849 29.5086 12.3726 29.5267 11.8514C29.545 11.3225 29.3232 10.8215 28.9183 10.477C28.497 10.1185 28.1412 9.73898 27.8252 9.34911C28.0504 9.15317 28.2618 8.93236 28.4564 8.68823C28.6178 8.4858 28.5845 8.19086 28.3821 8.02948C28.1797 7.86811 27.8848 7.90136 27.7233 8.1038C27.58 8.28367 27.426 8.44717 27.2636 8.59386C27.0222 8.24298 26.7997 7.88923 26.5802 7.53955C26.3266 7.13561 26.0712 6.72892 25.7885 6.33123C26.6711 5.63886 27.7801 5.14548 28.9397 4.92998C28.8918 5.39792 28.7923 5.88017 28.646 6.33317C28.5664 6.57948 28.7016 6.84373 28.948 6.9233C28.9958 6.9388 29.0444 6.94611 29.0922 6.94611C29.2901 6.94611 29.474 6.81973 29.5381 6.62136C29.7736 5.89236 29.9008 5.12536 29.909 4.39805C29.9092 4.39061 29.9096 4.38317 29.9095 4.37567C29.9096 4.36155 29.9104 4.34723 29.9104 4.33317C29.9114 3.74542 29.4938 3.23648 28.9175 3.1228ZM4.46297 31.0333C2.6841 30.8194 1.27016 29.4054 1.05622 27.6265H2.91279C3.7676 27.6265 4.46297 28.322 4.46297 29.1767V31.0333ZM15.0656 3.07423C14.6561 3.22311 14.2799 3.40217 13.9266 3.60098C13.2723 2.55205 12.3211 1.62342 11.2166 0.952422C12.349 1.13736 14.1983 1.65248 15.0656 3.07423ZM10.6464 1.70236C11.6645 2.30173 12.5397 3.1458 13.1332 4.0998C12.7316 4.37686 12.3522 4.67142 11.9758 4.96423C11.6506 5.21717 11.3212 5.47286 10.9752 5.71955C10.4745 4.75205 10.2323 3.2778 10.6464 1.70236ZM10.9 12.8134C10.8987 12.8419 10.9 12.871 10.904 12.9004C10.9041 12.9006 10.9049 12.9064 10.9049 12.9066H10.905C10.905 12.9069 10.905 12.9072 10.9051 12.9075H10.905C10.9052 12.9092 10.9055 12.9109 10.9057 12.9125C10.9058 12.913 10.9058 12.9136 10.9059 12.914C10.9535 13.2925 10.6849 13.6443 10.307 13.6984C10.2735 13.7031 10.2396 13.7055 10.2061 13.7055C10.2061 13.7055 10.2061 13.7055 10.206 13.7055C9.85898 13.7056 9.5601 13.4458 9.51085 13.1012C9.48097 12.8923 9.48785 12.4252 9.50797 12.2425C9.5286 12.0555 9.62085 11.8877 9.7676 11.7701C9.84179 11.7106 9.9256 11.668 10.0143 11.6428C10.0243 11.6405 10.0342 11.638 10.0439 11.635C10.0965 11.6225 10.1506 11.6157 10.2055 11.6157C10.2318 11.6157 10.2582 11.6171 10.2847 11.6201C10.67 11.6626 10.9492 12.0107 10.9072 12.3959C10.9069 12.3982 10.9067 12.4004 10.9065 12.4026C10.8982 12.4909 10.8964 12.6867 10.9 12.8134ZM18.8517 25.5466C18.7174 25.7203 18.5142 25.82 18.294 25.82C18.1375 25.82 17.9889 25.7691 17.8644 25.6729C17.7157 25.5579 17.6206 25.3919 17.5967 25.2055C17.5728 25.019 17.623 24.8344 17.738 24.6857C18.1989 24.0895 18.4197 23.227 18.3633 22.3057C18.8592 22.2899 19.3265 22.2264 19.7615 22.1161C19.8655 23.4224 19.5446 24.6502 18.8517 25.5466ZM22.3369 17.7785C22.2034 19.0185 21.725 19.9557 20.9153 20.5642C20.647 20.7658 20.3439 20.9289 20.011 21.0554C20.0002 21.059 19.9894 21.0628 19.9789 21.0671C19.377 21.2902 18.6769 21.3923 17.8944 21.3685C17.8734 21.3659 17.852 21.3652 17.8304 21.3655C17.4503 21.3508 17.0521 21.3082 16.6362 21.2349C16.6005 21.2287 16.5648 21.2214 16.5291 21.2146V15.5012C16.8856 15.5902 17.2457 15.6684 17.6065 15.732C18.4985 15.8893 19.3877 15.967 20.2677 15.967C20.9328 15.967 21.5923 15.9222 22.2426 15.8342C22.3738 16.4799 22.4066 17.132 22.3369 17.7785ZM26.3263 18.2999C26.4589 18.6646 26.2702 19.0694 25.9055 19.202C25.8276 19.2304 25.7467 19.2447 25.665 19.2447C25.3702 19.2447 25.1043 19.0585 25.0035 18.7812C24.7174 17.9947 24.1477 17.3975 23.3095 17.001C23.3031 16.559 23.2563 16.117 23.169 15.6779C23.3061 15.6501 23.4427 15.6202 23.5787 15.5884C24.9464 16.1382 25.8713 17.0492 26.3263 18.2999ZM28.2817 12.404C25.2778 14.6204 21.5445 15.4743 17.7692 14.8088C17.3533 14.7354 16.9377 14.6429 16.5291 14.5339V14.499C16.5291 13.1273 15.4132 12.0113 14.0414 12.0113H11.8196C11.6873 11.3229 11.1197 10.769 10.3881 10.6883C10.2838 10.6767 10.18 10.6754 10.0776 10.6832C9.57685 10.1444 9.11835 9.5638 8.71329 8.95361C8.67048 8.88905 8.63929 8.81942 8.61804 8.7473C11.7682 11.0662 14.0535 10.0561 15.912 9.2343C16.9798 8.76205 17.9021 8.35455 18.8771 8.52617C19.852 8.69811 20.5792 9.3968 21.4212 10.2057C22.5615 11.3013 23.9051 12.5924 26.214 12.5924C26.8722 12.5924 27.6094 12.4867 28.4422 12.2424C28.3973 12.303 28.3441 12.3579 28.2817 12.404ZM28.3108 11.1909C28.3416 11.2171 28.3692 11.2459 28.3953 11.2758C26.9307 11.7432 25.6985 11.7809 24.6422 11.3894C23.6071 11.0059 22.826 10.2554 22.0707 9.52973C21.198 8.69136 20.2957 7.82442 19.0398 7.60298C17.7839 7.38142 16.6395 7.88755 15.5328 8.37692C14.5747 8.80048 13.5841 9.23855 12.4803 9.24492C11.3531 9.25192 10.2086 8.79473 8.99235 7.85455C9.02704 7.83542 9.06285 7.8178 9.10073 7.80367C10.5408 7.26836 11.5629 6.47317 12.5514 5.70417C13.0393 5.32467 13.5095 4.95955 14.0098 4.64105C14.0148 4.63792 14.0197 4.63492 14.0245 4.63167C14.5647 4.28911 15.1406 4.00123 15.8133 3.8103C15.8338 3.80648 15.8543 3.8008 15.8747 3.79405C16.8769 3.52055 18.093 3.45967 19.7198 3.74642C21.3417 4.03242 22.4625 4.50336 23.3098 5.10067C23.3288 5.11623 23.3485 5.13061 23.3692 5.14273C23.9347 5.55148 24.377 6.01773 24.7669 6.52323C24.7735 6.53267 24.7808 6.5418 24.7883 6.55086C25.146 7.01817 25.4602 7.51861 25.7862 8.03792C26.4522 9.09861 27.1407 10.1953 28.3108 11.1909ZM25.2135 5.59105C24.95 5.28392 24.6583 4.98748 24.3252 4.70805C25.0298 4.15273 26.3523 3.59017 28.6647 4.02942C27.3977 4.2823 26.1867 4.82942 25.2135 5.59105ZM9.79104 25.4923C10.0499 25.4923 10.2598 25.2825 10.2598 25.0235V18.6653C10.2598 17.5898 9.38485 16.7149 8.30935 16.7149C7.23385 16.7149 6.35891 17.5898 6.35891 18.6653V26.5595C6.35891 28.1702 7.66929 29.4805 9.27991 29.4805C10.8905 29.4805 12.2009 28.1702 12.2009 26.5595V18.6653C12.2009 16.5195 10.4551 14.7737 8.30929 14.7737C6.16348 14.7737 4.41766 16.5195 4.41766 18.6653V25.0235C4.41766 25.2825 4.62754 25.4923 4.88641 25.4923C5.14529 25.4923 5.35516 25.2825 5.35516 25.0235V18.6653C5.35516 17.0364 6.68041 15.7112 8.30929 15.7112C9.93816 15.7112 11.2634 17.0364 11.2634 18.6653V26.5595C11.2634 27.6532 10.3736 28.543 9.27991 28.543C8.18623 28.543 7.29641 27.6532 7.29641 26.5595V18.6653C7.29641 18.1068 7.75079 17.6524 8.30929 17.6524C8.86785 17.6524 9.32223 18.1068 9.32223 18.6653V25.0235C9.32229 25.2825 9.5321 25.4923 9.79104 25.4923ZM19.0335 11.6452C18.8255 11.8132 18.5557 11.883 18.2933 11.8367C18.0309 11.7904 17.8013 11.6325 17.6633 11.4036C17.5297 11.1818 17.2417 11.1104 17.0199 11.244C16.7982 11.3776 16.7267 11.6656 16.8603 11.8874C17.1382 12.3485 17.6012 12.6665 18.1305 12.7599C18.2379 12.7788 18.3457 12.7881 18.4531 12.7881C18.8752 12.7881 19.2886 12.6441 19.6225 12.3745C19.8239 12.2118 19.8553 11.9167 19.6927 11.7153C19.53 11.5139 19.2349 11.4825 19.0335 11.6452ZM23.396 7.3518C23.0495 7.29061 22.7001 7.36817 22.4119 7.56992C22.1238 7.77173 21.9315 8.07361 21.8703 8.42005C21.8254 8.67498 21.9957 8.91811 22.2506 8.96305C22.5057 9.00836 22.7487 8.83773 22.7937 8.5828C22.8112 8.48298 22.8667 8.39605 22.9497 8.33792C23.0327 8.2798 23.1333 8.25755 23.2331 8.27505C23.4391 8.31142 23.5772 8.50855 23.5408 8.71455C23.4959 8.96948 23.6661 9.21267 23.9211 9.25755C23.9487 9.26242 23.976 9.26473 24.0031 9.26473C24.2263 9.26473 24.424 9.10473 24.4642 8.87736C24.5902 8.1623 24.1111 7.47792 23.396 7.3518ZM15.0323 5.87711C14.3174 5.75061 13.6328 6.23017 13.5067 6.94523C13.4617 7.20017 13.632 7.4433 13.8869 7.48823C14.1416 7.53361 14.385 7.36298 14.4299 7.10805C14.4663 6.90205 14.6635 6.7643 14.8695 6.8003C14.9692 6.81792 15.0562 6.8733 15.1143 6.9563C15.1724 7.0393 15.1947 7.13998 15.1771 7.23973C15.1322 7.49467 15.3024 7.73786 15.5573 7.78273C15.5848 7.78761 15.6122 7.78992 15.6393 7.78992C15.8625 7.78992 16.0603 7.62986 16.1003 7.40255C16.1614 7.05611 16.0839 6.70667 15.8822 6.41855C15.6805 6.13042 15.3787 5.93811 15.0323 5.87711ZM19.6421 9.40998C19.0835 9.15342 18.4683 9.04498 17.8557 9.09498C17.602 9.11573 17.3644 9.22767 17.1869 9.41011C16.9472 9.65648 16.9889 10.0598 17.274 10.2519L18.0648 10.7849C18.3004 10.9435 18.5921 10.995 18.8677 10.9264L19.7931 10.6961C20.1267 10.6131 20.3039 10.2484 20.1628 9.93486C20.0585 9.70267 19.8735 9.51623 19.6421 9.40998Z"
    />
</svg>
