<svg width="46" height="64" viewBox="0 0 46 64" fill="none" xmlns="http://www.w3.org/2000/svg">
<path d="M0.510254 22.9897C0.510254 10.5893 10.5996 0.5 23 0.5C35.4004 0.5 45.4897 10.5893 45.4897 22.9897C45.4897 35.7136 37.5145 48.1522 30.7522 56.3968L30.7521 56.3969C30.6007 56.5815 30.3286 56.6084 30.144 56.4569L29.8269 56.8435L30.144 56.4569C29.9595 56.3055 29.9326 56.0333 30.0839 55.8489L30.084 55.8488C36.6772 47.8102 44.6255 35.5325 44.6255 22.9897C44.6255 11.065 34.9248 1.36425 23 1.36425C11.0752 1.36425 1.3745 11.065 1.3745 22.9897C1.3745 31.6191 5.2305 40.177 9.6315 47.1431C14.0381 54.118 19.0272 59.5532 21.3691 61.9489C21.8011 62.3912 22.3823 62.6359 23 62.6359C23.6178 62.6359 24.1987 62.391 24.6307 61.9492L24.6308 61.9491C25.5775 60.9806 26.5397 59.9483 27.491 58.8809C27.6499 58.7029 27.923 58.6872 28.1013 58.846C28.2793 59.0047 28.295 59.2777 28.1362 59.456C27.1757 60.5338 26.2042 61.5758 25.2488 62.5531C24.6511 63.1646 23.8543 63.5 23 63.5C22.1457 63.5 21.3489 63.1646 20.7512 62.553L20.7512 62.553C18.106 59.847 13.0121 54.2539 8.61567 47.2025C3.21923 38.5475 0.510254 30.4034 0.510254 22.9897Z" fill="#0F172A" stroke="#0F172A"/>
<path d="M11.1426 10.6721L11.1426 10.6721C14.3462 7.59458 18.5561 5.90027 22.9999 5.90027C32.4381 5.90027 40.1175 13.5797 40.1175 23.018C40.1175 32.4563 32.4381 40.1356 22.9999 40.1356C13.5616 40.1356 5.88225 32.4563 5.88225 23.018C5.88225 19.8181 6.77077 16.698 8.45113 13.9944C8.57707 13.7918 8.84353 13.7295 9.04632 13.8554C9.24912 13.9815 9.31124 14.2481 9.18537 14.4505L9.18534 14.4506C7.58969 17.0179 6.74662 19.9808 6.74662 23.018C6.74662 31.9807 14.0374 39.2714 23 39.2714C31.9627 39.2714 39.2533 31.9808 39.2533 23.0181C39.2533 14.0555 31.9625 6.76464 22.9999 6.76464C18.7818 6.76464 14.7824 8.37407 11.7414 11.2953L11.7412 11.2954C11.5693 11.4607 11.2959 11.4554 11.1303 11.283C10.965 11.1109 10.9705 10.8374 11.1426 10.6721Z" fill="#0F172A" stroke="#0F172A"/>
<g clip-path="url(#clip0_1333_3101)">
<path d="M18.4067 17.9816L18.4067 17.9818C18.5814 18.904 18.367 19.7663 17.9513 20.3945C17.5329 21.0268 16.9293 21.3988 16.3324 21.3988C15.077 21.3988 13.663 20.115 13.663 18.4096C13.663 17.5305 13.8838 16.6259 14.2647 15.9494C14.6486 15.2673 15.1615 14.8682 15.7338 14.8682C16.3407 14.8682 16.9216 15.1963 17.4022 15.7642C17.8822 16.3313 18.2443 17.1192 18.4067 17.9816Z" fill="#0F172A" stroke="#0F172A" stroke-width="0.5"/>
<path d="M22.4052 12.7591L22.4052 12.7591C22.993 12.9317 23.4709 13.4147 23.7903 14.1002C24.1091 14.7845 24.2574 15.6476 24.1961 16.5248C24.1295 17.463 23.7037 18.2307 23.146 18.7158C22.585 19.2038 21.9119 19.3913 21.3374 19.2231C20.7376 19.0463 20.1722 18.5534 19.8109 17.8832C19.4512 17.2162 19.3055 16.3939 19.5202 15.5793L19.5203 15.5791C19.7428 14.7326 20.1841 13.9248 20.7209 13.3821C21.2613 12.8359 21.8537 12.597 22.4052 12.7591Z" fill="#0F172A" stroke="#0F172A" stroke-width="0.5"/>
<path d="M29.6312 20.0791L29.6312 20.0791C30.0246 19.3054 30.2217 18.4534 30.1938 17.6903C30.1658 16.9259 29.9143 16.2749 29.4392 15.8619L29.4386 15.8614C28.9946 15.4731 28.3623 15.4399 27.6635 15.7052C26.9668 15.9696 26.2537 16.5167 25.7242 17.1934L25.7241 17.1935C25.2164 17.8417 25.032 18.654 25.1043 19.4202C25.177 20.1896 25.5058 20.8872 25.9908 21.3099L29.6312 20.0791ZM29.6312 20.0791C28.7786 21.7562 26.9148 22.1147 25.9908 21.3099L29.6312 20.0791Z" fill="#0F172A" stroke="#0F172A" stroke-width="0.5"/>
<path d="M29.7267 22.3403L29.7265 22.3404C29.0863 22.6698 28.649 23.2605 28.4372 23.918C28.2247 24.578 28.2472 25.2815 28.497 25.8207L28.497 25.8208C28.9751 26.8537 30.6325 27.2813 31.9131 26.2516C32.51 25.771 32.9725 25.1487 33.219 24.511C33.4657 23.8728 33.4897 23.2384 33.2456 22.7104L29.7267 22.3403ZM29.7267 22.3403C30.3991 21.9935 31.1771 21.8255 31.842 21.8829M29.7267 22.3403L31.842 21.8829M31.842 21.8829C32.5074 21.9403 33.0162 22.2156 33.2456 22.7103L31.842 21.8829Z" fill="#0F172A" stroke="#0F172A" stroke-width="0.5"/>
<path d="M15.0867 26.3888C15.0867 24.851 16.0687 23.4203 17.501 22.3893C18.9309 21.3599 20.7642 20.7642 22.3787 20.8698C24.6255 21.0193 26.7278 23.0331 27.3145 26.3141C27.5973 27.9016 27.4488 29.3478 26.6478 30.3839C25.8518 31.4134 24.3593 32.104 21.8002 32.0656C20.1741 32.0393 18.4875 31.4026 17.2099 30.3728C15.9324 29.3431 15.0867 27.9407 15.0867 26.3888Z" fill="#0F172A" stroke="#0F172A" stroke-width="0.5"/>
</g>
<defs>
<clipPath id="clip0_1333_3101">
<rect width="21.3333" height="21.3333" fill="white" transform="translate(12.3332 11.6364)"/>
</clipPath>
</defs>
</svg>
