<svg width="19" height="19" viewBox="0 0 19 19"  xmlns="http://www.w3.org/2000/svg">
<path fill-rule="evenodd" clip-rule="evenodd" d="M6.5601 2.1001H10.1001C10.3388 2.1001 10.5677 2.19492 10.7365 2.3637C10.9053 2.53248 11.0001 2.7614 11.0001 3.0001C11.0001 3.23879 10.9053 3.46771 10.7365 3.63649C10.5677 3.80528 10.3388 3.9001 10.1001 3.9001H6.6001C5.6001 3.9001 4.9101 3.9001 4.3701 3.9401C3.8501 3.9901 3.5501 4.0701 3.3201 4.1801C2.82891 4.42971 2.42971 4.82891 2.1801 5.3201C2.0701 5.5501 1.9801 5.8501 1.9401 6.3701C1.9001 6.9101 1.9001 7.6101 1.9001 8.6001V12.4001C1.9001 13.4001 1.9001 14.0901 1.9401 14.6301C1.9901 15.1501 2.0701 15.4501 2.1801 15.6801C2.4301 16.1701 2.8301 16.5701 3.3201 16.8201C3.5501 16.9301 3.8501 17.0201 4.3701 17.0601C4.9101 17.1001 5.6101 17.1001 6.6001 17.1001H10.4001C11.4001 17.1001 12.0901 17.1001 12.6301 17.0601C13.1501 17.0101 13.4501 16.9301 13.6801 16.8201C14.1713 16.5705 14.5705 16.1713 14.8201 15.6801C14.9301 15.4501 15.0201 15.1501 15.0601 14.6301C15.1001 14.0901 15.1001 13.3901 15.1001 12.4001V8.9001C15.1001 8.6614 15.1949 8.43248 15.3637 8.2637C15.5325 8.09492 15.7614 8.0001 16.0001 8.0001C16.2388 8.0001 16.4677 8.09492 16.6365 8.2637C16.8053 8.43248 16.9001 8.6614 16.9001 8.9001V12.4401C16.9001 13.3901 16.9001 14.1501 16.8501 14.7701C16.8236 15.3697 16.6774 15.9579 16.4201 16.5001C15.9985 17.3265 15.3265 17.9985 14.5001 18.4201C13.9579 18.6774 13.3697 18.8236 12.7701 18.8501C12.1501 18.9001 11.3901 18.9001 10.4401 18.9001H6.5601C5.6101 18.9001 4.8501 18.9001 4.2301 18.8501C3.63053 18.8236 3.04232 18.6774 2.5001 18.4201C1.67369 17.9985 1.00168 17.3265 0.580098 16.5001C0.323089 15.9578 0.176901 15.3696 0.150098 14.7701C0.100098 14.1501 0.100098 13.3901 0.100098 12.4401V8.5601C0.100098 7.6101 0.100098 6.8501 0.150098 6.2301C0.200098 5.5901 0.310098 5.0301 0.580098 4.5001C1.00168 3.67369 1.67369 3.00168 2.5001 2.5801C3.04241 2.32309 3.63057 2.1769 4.2301 2.1501C4.8501 2.1001 5.6101 2.1001 6.5601 2.1001Z" />
<path fill-rule="evenodd" clip-rule="evenodd" d="M16.1201 1.33006C16.2207 1.22282 16.3419 1.13686 16.4764 1.07726C16.6108 1.01766 16.7559 0.985638 16.9029 0.983077C17.05 0.980516 17.1961 1.00747 17.3325 1.06236C17.469 1.11724 17.5931 1.19893 17.6974 1.3026C17.8017 1.40626 17.8842 1.5298 17.94 1.66591C17.9957 1.80201 18.0236 1.94791 18.022 2.09499C18.0204 2.24206 17.9893 2.38732 17.9306 2.52216C17.8719 2.65701 17.7867 2.77871 17.6801 2.88006L17.3301 3.23006C17.2929 3.26785 17.2485 3.29787 17.1996 3.31835C17.1506 3.33884 17.0981 3.34939 17.0451 3.34939C16.992 3.34939 16.9395 3.33884 16.8906 3.31835C16.8417 3.29787 16.7973 3.26785 16.7601 3.23006L15.7701 2.24006C15.6968 2.16529 15.6557 2.06476 15.6557 1.96006C15.6557 1.85536 15.6968 1.75483 15.7701 1.68006L16.1201 1.33006ZM15.5201 3.90006L15.1001 3.48006C14.6601 3.04006 14.3801 3.06006 13.9701 3.48006L8.84008 8.60006C6.89008 10.5601 5.65008 12.4901 6.08008 12.9201C6.51008 13.3501 8.44008 12.1201 10.4001 10.1601L15.5201 5.03006C15.9601 4.59006 15.9401 4.31006 15.5201 3.90006Z" />
</svg>
