<svg width="22" height="22" viewBox="0 0 22 22" fill="none" xmlns="http://www.w3.org/2000/svg">
<path fill-rule="evenodd" clip-rule="evenodd" d="M12.5028 14.62C13.7361 14.62 14.74 15.6154 14.74 16.8389V19.9857C14.74 20.2486 14.9511 20.4594 15.2215 20.4655H17.174C18.7126 20.4655 19.9634 19.2317 19.9634 17.7157V8.79095C19.9562 8.26921 19.7073 7.77817 19.2801 7.45183L12.5263 2.07287C11.6198 1.35574 10.3516 1.35574 9.4419 2.07491L2.73419 7.44979C2.29063 7.78635 2.04171 8.2774 2.03659 8.80834V17.7157C2.03659 19.2317 3.28737 20.4655 4.826 20.4655H6.79693C7.07454 20.4655 7.2999 20.2455 7.2999 19.9755C7.2999 19.9161 7.30707 19.8568 7.31937 19.8005V16.8389C7.31937 15.6226 8.31712 14.6282 9.54127 14.62H12.5028ZM17.174 22H15.2031C14.0742 21.9734 13.2035 21.0885 13.2035 19.9857V16.8389C13.2035 16.4614 12.889 16.1545 12.5028 16.1545H9.54639C9.16839 16.1566 8.85595 16.4645 8.85595 16.8389V19.9755C8.85595 20.0522 8.84571 20.1259 8.82419 20.1954C8.71356 21.2082 7.84693 22 6.79693 22H4.826C2.44019 22 0.5 20.0778 0.5 17.7157V8.80118C0.510244 7.78431 0.979415 6.85337 1.78971 6.24059L8.4841 0.874926C9.95819 -0.291301 12.0121 -0.291301 13.4831 0.87288L20.2257 6.24366C21.0175 6.84621 21.4867 7.7751 21.5 8.77969V17.7157C21.5 20.0778 19.5598 22 17.174 22Z" fill="#EDF2F7"/>
</svg>
