<svg viewBox="0 0 25 25" xmlns="http://www.w3.org/2000/svg">
    <path fill-rule="evenodd" clip-rule="evenodd"
          d="M18.3333 12.6661C18.4372 12.7589 18.4462 12.9183 18.3534 13.0223L17.8167 13.6232C17.7239 13.7271 17.5644 13.7361 17.4605 13.6433C17.3566 13.5505 17.3476 13.391 17.4404 13.2871L17.9771 12.6862C18.0699 12.5823 18.2294 12.5733 18.3333 12.6661Z"
          fill="white"/>
    <path fill-rule="evenodd" clip-rule="evenodd"
          d="M13.6358 12.142C13.7377 12.0452 13.8975 12.0477 13.9926 12.1476L14.5296 12.712C14.6247 12.812 14.6192 12.9716 14.5172 13.0685C14.4152 13.1653 14.2554 13.1628 14.1603 13.0629L13.6233 12.4985C13.5282 12.3985 13.5338 12.2389 13.6358 12.142Z"
          fill="white"/>
    <path fill-rule="evenodd" clip-rule="evenodd"
          d="M11.2905 12.0095C11.4268 11.9804 11.5608 12.0673 11.5899 12.2035C11.5989 12.2456 11.6352 12.3508 11.7017 12.5118C11.7653 12.6656 11.8494 12.8537 11.9437 13.052C12.1335 13.4512 12.358 13.8776 12.5334 14.1437C12.538 14.1507 12.5423 14.1579 12.5462 14.1653C12.5634 14.1982 12.5972 14.2533 12.6419 14.3263C12.8168 14.6116 13.1587 15.1696 13.3309 15.7343C13.4415 16.0969 13.498 16.5027 13.3884 16.8834C13.2749 17.2777 12.9937 17.609 12.5039 17.8278C12.4951 17.8317 12.4862 17.8351 12.4771 17.838C12.1142 17.9529 11.6709 18.0412 11.2259 18.044C10.7828 18.0467 10.3176 17.9645 9.93093 17.7172C9.81355 17.6421 9.77925 17.4861 9.85431 17.3688C9.92937 17.2514 10.0854 17.2171 10.2028 17.2921C10.4788 17.4687 10.8366 17.5418 11.2228 17.5394C11.6016 17.5371 11.9883 17.4621 12.3109 17.3614C12.6731 17.1962 12.8369 16.9754 12.9035 16.7439C12.9749 16.4961 12.9452 16.1993 12.8483 15.8814C12.699 15.3919 12.4271 14.9459 12.2442 14.646C12.1872 14.5525 12.1388 14.4732 12.1055 14.4112C11.9119 14.1154 11.6788 13.6697 11.488 13.2687C11.3909 13.0644 11.3031 12.8682 11.2355 12.7045C11.1707 12.5479 11.1164 12.4023 11.0965 12.3089C11.0674 12.1726 11.1543 12.0386 11.2905 12.0095Z"
          fill="white"/>
    <path d="M9.82923 11.6692C8.59809 13.3124 8.26979 18.6567 9.19854 22.3908C-1.52815 13.5041 -3.15543 3.48877 12.9826 2.52441C4.71102 6.30453 3.61237 10.2537 6.04515 16.3993C5.33657 10.8194 8.15374 5.9411 13.6133 6.62382C14.3911 4.711 14.96 3.76348 16.4513 2.52441C16.9044 3.31036 17.1193 3.78724 17.3974 4.73179C18.8833 5.32189 19.6409 5.80906 20.8661 6.93916C21.7562 6.50296 22.3134 6.374 23.3888 6.30848C23.0812 8.10507 22.5644 9.06731 21.1814 10.7232C22.6265 14.3218 20.3262 18.7287 16.136 19.2374C14.0581 19.296 14.3015 16.4649 16.136 16.3993C18.2985 16.3214 19.1262 12.7574 17.7127 12.6153C15.6909 12.5391 15.9704 12.4922 14.5593 11.0386C12.6328 9.64152 10.7904 10.1865 9.82923 11.6692Z"
          fill="white" stroke="white" stroke-width="0.8" stroke-linecap="round" stroke-linejoin="round"/>
    <path fill-rule="evenodd" clip-rule="evenodd"
          d="M16.4622 6.31932C16.3096 6.23243 16.0821 6.20887 15.6806 6.25427C15.5768 6.26601 15.4831 6.19136 15.4714 6.08753C15.4596 5.9837 15.5343 5.89 15.6381 5.87826C16.0485 5.83185 16.3838 5.83923 16.6494 5.9905C16.9219 6.14568 17.0779 6.42609 17.199 6.80807C17.2306 6.90768 17.1754 7.01403 17.0758 7.04561C16.9762 7.0772 16.8699 7.02206 16.8383 6.92245C16.7257 6.5673 16.6079 6.40231 16.4622 6.31932Z"
          fill="#0F172A"/>
    <path fill-rule="evenodd" clip-rule="evenodd"
          d="M19.6643 8.27928C19.5117 8.19239 19.2843 8.16883 18.8828 8.21423C18.779 8.22598 18.6853 8.15132 18.6735 8.04749C18.6618 7.94366 18.7364 7.84997 18.8403 7.83822C19.2507 7.79181 19.586 7.79919 19.8516 7.95046C20.1241 8.10564 20.28 8.38605 20.4011 8.76803C20.4327 8.86764 20.3776 8.97399 20.278 9.00557C20.1784 9.03716 20.072 8.98202 20.0404 8.88241C19.9278 8.52726 19.81 8.36227 19.6643 8.27928Z"
          fill="#0F172A"/>
    <path d="M17.3025 9.07861L16.5896 8.54267L16.6781 9.1671L17.3025 9.07861Z" fill="#0F172A"/>
    <path fill-rule="evenodd" clip-rule="evenodd"
          d="M16.5254 8.43383C16.5694 8.40788 16.6246 8.41096 16.6654 8.44161L17.3783 8.97756C17.4191 9.00821 17.4374 9.06041 17.4247 9.10982C17.4119 9.15923 17.3707 9.19611 17.3202 9.20327L16.7475 9.28443L16.5109 9.59914C16.4691 9.65482 16.39 9.66603 16.3343 9.62417C16.2786 9.58231 16.2674 9.50323 16.3093 9.44755L16.5458 9.13284L16.4647 8.56014C16.4575 8.50962 16.4815 8.45977 16.5254 8.43383ZM16.7853 9.02429L16.9833 8.99622L16.7572 8.82624L16.7853 9.02429Z"
          fill="#0F172A"/>
</svg>
