<svg  viewBox="0 0 25 25" fill="none" xmlns="http://www.w3.org/2000/svg">
<path fill-rule="evenodd" clip-rule="evenodd" d="M18.722 12.6661C18.8259 12.7589 18.8349 12.9183 18.7421 13.0223L18.2054 13.6232C18.1126 13.7271 17.9531 13.7361 17.8492 13.6433C17.7453 13.5505 17.7363 13.391 17.8291 13.2871L18.3658 12.6862C18.4586 12.5823 18.6181 12.5733 18.722 12.6661Z" fill="#0F172A"/>
<path fill-rule="evenodd" clip-rule="evenodd" d="M14.0244 12.142C14.1264 12.0452 14.2862 12.0477 14.3813 12.1476L14.9183 12.712C15.0134 12.812 15.0078 12.9716 14.9059 13.0685C14.8039 13.1653 14.6441 13.1628 14.549 13.0629L14.012 12.4985C13.9169 12.3985 13.9225 12.2389 14.0244 12.142Z" fill="#0F172A"/>
<path fill-rule="evenodd" clip-rule="evenodd" d="M11.6792 12.0095C11.8154 11.9804 11.9495 12.0673 11.9786 12.2035C11.9876 12.2456 12.0239 12.3508 12.0904 12.5118C12.154 12.6656 12.2381 12.8537 12.3323 13.052C12.5222 13.4512 12.7467 13.8776 12.9221 14.1437C12.9267 14.1507 12.931 14.1579 12.9349 14.1653C12.9521 14.1982 12.9859 14.2533 13.0306 14.3263C13.2055 14.6116 13.5474 15.1696 13.7196 15.7343C13.8301 16.0969 13.8867 16.5027 13.7771 16.8834C13.6636 17.2777 13.3824 17.609 12.8925 17.8278C12.8838 17.8317 12.8749 17.8351 12.8658 17.838C12.5028 17.9529 12.0596 18.0412 11.6145 18.044C11.1715 18.0467 10.7063 17.9645 10.3196 17.7172C10.2022 17.6421 10.1679 17.4861 10.243 17.3688C10.318 17.2514 10.474 17.2171 10.5914 17.2921C10.8675 17.4687 11.2252 17.5418 11.6115 17.5394C11.9903 17.5371 12.377 17.4621 12.6996 17.3614C13.0618 17.1962 13.2256 16.9754 13.2922 16.7439C13.3635 16.4961 13.3339 16.1993 13.237 15.8814C13.0877 15.3919 12.8158 14.9459 12.6328 14.646C12.5758 14.5525 12.5275 14.4732 12.4942 14.4112C12.3006 14.1154 12.0674 13.6697 11.8767 13.2687C11.7796 13.0644 11.6918 12.8682 11.6241 12.7045C11.5594 12.5479 11.5051 12.4023 11.4852 12.3089C11.4561 12.1726 11.5429 12.0386 11.6792 12.0095Z" fill="#0F172A"/>
<path d="M10.2179 11.6692C8.98677 13.3124 8.65846 18.6567 9.58721 22.3908C-1.13947 13.5041 -2.76676 3.48877 13.3713 2.52441C5.09969 6.30453 4.00104 10.2537 6.43382 16.3993C5.72524 10.8194 8.54241 5.9411 14.002 6.62382C14.7798 4.711 15.3487 3.76348 16.84 2.52441C17.2931 3.31036 17.508 3.78724 17.786 4.73179C19.2719 5.32189 20.0296 5.80906 21.2548 6.93916C22.1449 6.50296 22.702 6.374 23.7775 6.30848C23.4699 8.10507 22.9531 9.06731 21.5701 10.7232C23.0152 14.3218 20.7149 18.7287 16.5247 19.2374C14.4467 19.296 14.6902 16.4649 16.5247 16.3993C18.6872 16.3214 19.5149 12.7574 18.1014 12.6153C16.0796 12.5391 16.3591 12.4922 14.948 11.0386C13.0215 9.64152 11.1791 10.1865 10.2179 11.6692Z" fill="#0F172A" stroke="#0F172A" stroke-width="0.8" stroke-linecap="round" stroke-linejoin="round"/>
<path fill-rule="evenodd" clip-rule="evenodd" d="M16.8508 6.31932C16.6983 6.23243 16.4708 6.20887 16.0693 6.25427C15.9655 6.26601 15.8718 6.19136 15.86 6.08753C15.8483 5.9837 15.923 5.89 16.0268 5.87826C16.4372 5.83185 16.7725 5.83923 17.0381 5.9905C17.3106 6.14568 17.4665 6.42609 17.5877 6.80807C17.6192 6.90768 17.5641 7.01403 17.4645 7.04561C17.3649 7.0772 17.2585 7.02206 17.2269 6.92245C17.1143 6.5673 16.9966 6.40231 16.8508 6.31932Z" fill="white"/>
<path fill-rule="evenodd" clip-rule="evenodd" d="M20.053 8.27928C19.9004 8.19239 19.6729 8.16883 19.2715 8.21423C19.1676 8.22598 19.0739 8.15132 19.0622 8.04749C19.0504 7.94366 19.1251 7.84997 19.2289 7.83822C19.6393 7.79181 19.9746 7.79919 20.2403 7.95046C20.5127 8.10564 20.6687 8.38605 20.7898 8.76803C20.8214 8.86764 20.7662 8.97399 20.6666 9.00557C20.567 9.03716 20.4607 8.98202 20.4291 8.88241C20.3165 8.52726 20.1987 8.36227 20.053 8.27928Z" fill="white"/>
<path d="M17.6912 9.07861L16.9782 8.54267L17.0667 9.1671L17.6912 9.07861Z" fill="white"/>
<path fill-rule="evenodd" clip-rule="evenodd" d="M16.9141 8.43383C16.958 8.40788 17.0133 8.41096 17.054 8.44161L17.767 8.97756C17.8078 9.00821 17.826 9.06041 17.8133 9.10982C17.8006 9.15923 17.7594 9.19611 17.7089 9.20327L17.1362 9.28443L16.8996 9.59914C16.8577 9.65482 16.7787 9.66603 16.723 9.62417C16.6673 9.58231 16.6561 9.50323 16.6979 9.44755L16.9345 9.13284L16.8534 8.56014C16.8462 8.50962 16.8702 8.45977 16.9141 8.43383ZM17.1739 9.02429L17.372 8.99622L17.1459 8.82624L17.1739 9.02429Z" fill="white"/>
</svg>
