<svg viewBox="0 0 21 20" fill="none" xmlns="http://www.w3.org/2000/svg">
    <path fill-rule="evenodd" clip-rule="evenodd"
          d="M11.6918 0C9.24576 0 7.25575 1.99 7.25575 4.436V5.368C7.25575 5.782 7.59175 6.118 8.00575 6.118C8.41975 6.118 8.75575 5.782 8.75575 5.368V4.436C8.75575 2.816 10.0728 1.5 11.6918 1.5H16.5668C18.1838 1.5 19.4998 2.816 19.4998 4.436V15.565C19.4998 17.184 18.1838 18.5 16.5668 18.5H11.6808C10.0688 18.5 8.75575 17.188 8.75575 15.576V14.633C8.75575 14.219 8.41975 13.883 8.00575 13.883C7.59175 13.883 7.25575 14.219 7.25575 14.633V15.576C7.25575 18.016 9.24176 20 11.6808 20H16.5668C19.0108 20 20.9998 18.011 20.9998 15.565V4.436C20.9998 1.99 19.0108 0 16.5668 0H11.6918ZM3.61165 6.554L0.683653 9.469C0.657532 9.49492 0.634142 9.52187 0.612736 9.55039L0.683653 9.469C0.648222 9.50393 0.616714 9.5421 0.589378 9.5828C0.577345 9.60125 0.565739 9.62032 0.554983 9.63992C0.546255 9.65523 0.538221 9.67122 0.530775 9.68746C0.524462 9.70182 0.5184 9.71618 0.512785 9.73077C0.505245 9.74977 0.498644 9.76931 0.492853 9.78911C0.488489 9.8047 0.484478 9.82026 0.480963 9.836C0.476496 9.8551 0.472977 9.87432 0.470211 9.89368C0.468645 9.90627 0.467113 9.91947 0.465931 9.93276C0.46364 9.95557 0.462654 9.97774 0.462654 10L0.467752 10.062L0.469805 10.1017C0.470036 10.1034 0.47027 10.1051 0.470512 10.1068L0.462654 10C0.462654 10.0555 0.4688 10.1105 0.480747 10.1639C0.484478 10.1797 0.488489 10.1953 0.492979 10.2107C0.498642 10.2307 0.505245 10.2502 0.51264 10.2695C0.518402 10.2838 0.524462 10.2982 0.530949 10.3123C0.538221 10.3288 0.546253 10.3448 0.554861 10.3605C0.565739 10.3797 0.577345 10.3988 0.589752 10.4172C0.596771 10.4282 0.604471 10.439 0.612471 10.4497C0.63628 10.481 0.662224 10.5104 0.690298 10.5377L3.61165 13.447C3.75765 13.593 3.94965 13.666 4.14065 13.666C4.33265 13.666 4.52565 13.593 4.67165 13.445C4.96365 13.151 4.96265 12.677 4.66965 12.385L3.02975 10.75H13.254C13.668 10.75 14.004 10.414 14.004 10C14.004 9.586 13.668 9.25 13.254 9.25H3.02775L4.66965 7.616C4.96265 7.324 4.96465 6.85 4.67165 6.556C4.37965 6.262 3.90565 6.262 3.61165 6.554Z"
    />
</svg>
