<svg width="28" height="29" viewBox="0 0 28 29" fill="none" xmlns="http://www.w3.org/2000/svg">
<g clip-path="url(#clip0_1333_3494)">
<path d="M27.9641 19.5513L25.4758 12.707C25.3918 12.4748 25.1199 12.3359 24.924 12.3231L6.12179 12.4596C6.05429 12.4596 5.98765 12.4724 5.92463 12.4957L0.38335 14.5372C0.0823719 14.6481 -0.0727096 14.9817 0.0368727 15.284L4.7032 28.1164C4.75575 28.2623 4.86533 28.3813 5.00546 28.4467C5.08236 28.4817 5.16652 28.5003 5.25047 28.5003C5.31926 28.5003 5.38697 28.4886 5.45234 28.4642L27.6177 20.2979C27.9186 20.1872 28.0737 19.8535 27.9641 19.5513Z" fill="#388E3C"/>
<path d="M27.8288 10.0051L18.4961 0.672209C18.2686 0.444713 17.8986 0.444713 17.6713 0.672209L0.172331 18.1712C-0.0551649 18.3987 -0.0551649 18.7687 0.172331 18.9962L9.50499 28.3288C9.61821 28.4431 9.76752 28.5004 9.91683 28.5004C10.0661 28.5004 10.2155 28.4431 10.3297 28.3301L27.8288 10.8311C28.0562 10.6023 28.0562 10.2339 27.8288 10.0051Z" fill="#4CAF50"/>
<path d="M17.4227 15.0447C17.2221 14.1815 16.7041 13.2995 15.9669 12.5621C14.3465 10.9419 12.2198 10.53 11.1244 11.6254C10.0287 12.7208 10.4406 14.8475 12.061 16.468C12.7984 17.2052 13.6802 17.7232 14.5436 17.924C14.8106 17.987 15.0685 18.0173 15.3135 18.0173C15.9505 18.0173 16.4999 17.8084 16.9036 17.4047C17.4624 16.8448 17.6468 16.0072 17.4227 15.0447Z" fill="#FAFAFA"/>
<path d="M9.91665 28.5001C9.76733 28.5001 9.61802 28.4428 9.50374 28.3298L0.170866 18.9969C-0.0566298 18.7694 -0.0566298 18.3997 0.170866 18.1722L17.6699 0.673185C17.8974 0.44569 18.2671 0.44569 18.4946 0.673185L27.8275 10.0061C28.055 10.2336 28.055 10.6033 27.8275 10.8308L10.3285 28.3298C10.2153 28.4428 10.066 28.5001 9.91665 28.5001ZM1.40874 18.584L9.91665 27.0919L26.5909 10.4177L18.0828 1.90978L1.40874 18.584Z" fill="black"/>
<path d="M5.25044 28.5002C5.16649 28.5002 5.08232 28.4816 5.00414 28.4466C4.86423 28.3812 4.75464 28.2623 4.7021 28.1164L2.03516 20.7831C1.9243 20.481 2.08066 20.1461 2.38399 20.0355C2.6886 19.9269 3.02226 20.082 3.13184 20.3843L5.59798 27.1669L8.45844 26.1123C8.75707 26.0001 9.09543 26.1554 9.20758 26.4575C9.31951 26.7597 9.16421 27.0944 8.86217 27.2064L5.4523 28.4628C5.38693 28.4885 5.31922 28.5002 5.25044 28.5002Z" fill="black"/>
<path d="M1.51721 18.2341C1.27925 18.2341 1.05538 18.0871 0.969086 17.8504L0.0358201 15.2839C-0.0750439 14.9816 0.0800376 14.648 0.382297 14.5371L5.92358 12.4956C6.22327 12.3861 6.56163 12.5388 6.6725 12.8411C6.78443 13.1431 6.62935 13.4778 6.3273 13.59L1.33073 15.4309L2.06555 17.4514C2.17642 17.7547 2.02005 18.0884 1.71672 18.1993C1.65029 18.2226 1.58258 18.2341 1.51721 18.2341Z" fill="black"/>
<path d="M12.6384 25.7786C12.4017 25.7786 12.1776 25.6327 12.0913 25.3971C11.9794 25.0948 12.1345 24.7601 12.4367 24.6482L26.6692 19.4055L24.378 13.107C24.2671 12.8047 24.4235 12.47 24.7268 12.3591C25.0325 12.2495 25.3659 12.4046 25.4745 12.7079L27.9641 19.5525C28.075 19.8545 27.9197 20.1882 27.6176 20.299L12.8402 25.7436C12.7738 25.7668 12.7061 25.7786 12.6384 25.7786Z" fill="black"/>
<path d="M21.0112 20.2372C20.7745 20.2372 20.5504 20.0915 20.4641 19.8559C20.3522 19.5536 20.5073 19.2189 20.8095 19.1068L23.7142 18.037C24.0128 17.9251 24.3512 18.0801 24.4631 18.3824C24.5753 18.6844 24.42 19.0194 24.1179 19.1313L21.213 20.2011C21.1466 20.2267 21.0778 20.2372 21.0112 20.2372Z" fill="black"/>
<path d="M15.304 18.0173C14.274 18.0173 13.069 17.4771 12.061 16.468C10.4405 14.8476 10.03 12.7208 11.1243 11.6254C11.6831 11.0666 12.5217 10.8834 13.483 11.1064C14.3464 11.308 15.2284 11.825 15.9656 12.5634C17.586 14.1826 17.9979 16.3093 16.9035 17.406C16.4906 17.8178 15.9295 18.0173 15.304 18.0173ZM12.7155 12.1796C12.4472 12.1796 12.1567 12.2413 11.949 12.4491C11.4159 12.9834 11.669 14.4252 12.8857 15.642C14.1024 16.8576 15.5445 17.112 16.0788 16.5789C16.612 16.0444 16.3575 14.6025 15.1408 13.3858C14.5634 12.8084 13.8621 12.3908 13.2183 12.2413C13.0852 12.211 12.9056 12.1796 12.7155 12.1796Z" fill="black"/>
<path d="M21.5828 13.3345C21.4335 13.3345 21.2842 13.2772 21.1699 13.164C20.9424 12.9365 20.9424 12.5667 21.1699 12.3393L23.5032 10.0062C23.7307 9.7787 24.1004 9.7787 24.3279 10.0062C24.5554 10.2337 24.5554 10.6034 24.3279 10.8309L21.9946 13.164C21.8814 13.2772 21.7321 13.3345 21.5828 13.3345Z" fill="black"/>
<path d="M4.08378 19.1673C3.93446 19.1673 3.78515 19.1103 3.67087 18.9971C3.44337 18.7696 3.44337 18.3998 3.67087 18.1723L6.00414 15.8391C6.23163 15.6116 6.60139 15.6116 6.82889 15.8391C7.05639 16.0666 7.05639 16.4363 6.82889 16.6638L4.49562 18.9971C4.3824 19.1103 4.23309 19.1673 4.08378 19.1673Z" fill="black"/>
</g>
<defs>
<clipPath id="clip0_1333_3494">
<rect width="28" height="28" fill="white" transform="translate(0 0.5)"/>
</clipPath>
</defs>
</svg>
