<svg width="23" height="23" viewBox="0 0 23 23" stroke-width="1.5" xmlns="http://www.w3.org/2000/svg">
    <path d="M5.15721 6.29984L5.15735 6.30058C5.33073 7.21606 5.11605 8.06238 4.71466 8.66895C4.30509 9.28789 3.75709 9.58867 3.2843 9.58867C2.15123 9.58867 0.75 8.37515 0.75 6.69464C0.75 5.77504 0.982719 4.83865 1.36654 4.15683C1.75977 3.45829 2.21058 3.17926 2.61082 3.17926C3.11431 3.17926 3.64759 3.4514 4.12997 4.02136C4.61049 4.58912 4.98732 5.39792 5.15721 6.29984Z"
          fill="transparent"/>
    <path d="M9.98397 0.787659L9.98419 0.787724C10.4764 0.932211 10.9269 1.35217 11.2495 2.04464C11.5703 2.73315 11.7275 3.62299 11.6634 4.54111C11.5973 5.47291 11.1757 6.22127 10.6419 6.68553C10.0985 7.15816 9.50231 7.29332 9.04699 7.16018C8.51591 7.00339 7.97005 6.54761 7.61016 5.88009C7.25534 5.22196 7.11598 4.41864 7.32387 3.6301L7.32401 3.6296C7.5566 2.74484 8.01658 1.91235 8.55464 1.36847C9.10329 0.813873 9.59908 0.674551 9.98397 0.787659Z"
          fill="transparent"/>
    <path d="M17.8275 8.36044L17.8276 8.36038C18.2381 7.55306 18.4381 6.67309 18.4099 5.90264C18.3816 5.12809 18.1295 4.53659 17.7219 4.18224L17.7202 4.18078C17.4017 3.90224 16.8968 3.82525 16.1981 4.09045C15.5058 4.35319 14.7704 4.91096 14.2192 5.61532L14.219 5.61562C13.7324 6.23676 13.5475 7.02656 13.6194 7.78756C13.6921 8.55802 14.0199 9.22234 14.4579 9.60406L17.8275 8.36044ZM17.8275 8.36044C16.9622 10.0627 15.1984 10.249 14.458 9.60413L17.8275 8.36044Z"
          fill="transparent"/>
    <path d="M18.5671 11.5337L18.5677 11.5333C19.2492 11.1819 20.0119 11.0376 20.6376 11.1095C21.2609 11.1812 21.6478 11.4451 21.8194 11.8152C22.2421 12.7303 21.8005 14.1197 20.5185 15.152C19.2619 16.1619 17.7774 15.6618 17.3949 14.8354L17.3948 14.8352C17.1714 14.3529 17.1391 13.6854 17.3484 13.0353C17.5553 12.3929 17.9753 11.8382 18.5671 11.5337Z"
          fill="transparent"/>
    <path d="M2.35156 15.6713C2.35156 14.1472 3.33093 12.6622 4.87281 11.5522C6.40769 10.4473 8.36446 9.81963 10.0555 9.93021C12.3046 10.0799 14.543 12.1209 15.1776 15.6694C15.4851 17.3953 15.3033 18.8637 14.5183 19.8791C13.7484 20.8748 12.2433 21.631 9.44263 21.589C7.72306 21.561 5.92565 20.8846 4.56564 19.7884C3.20581 18.6923 2.35156 17.2378 2.35156 15.6713Z"
          fill="transparent"/>
</svg>
