<svg width="18" height="16" viewBox="0 0 18 16" xmlns="http://www.w3.org/2000/svg">
    <path fill-rule="evenodd" clip-rule="evenodd"
          d="M4.5 3.5C5.07 3.5 5.5 3.3 5.84 2.98C6.08 2.74 6.27 2.44 6.39 2.24L6.45 2.14C6.6 1.91 6.71 1.77 6.84 1.67C6.95 1.59 7.14 1.5 7.5 1.5H10.5C10.86 1.5 11.05 1.59 11.16 1.67C11.29 1.77 11.4 1.91 11.56 2.15L11.61 2.24C11.73 2.44 11.91 2.74 12.16 2.98C12.49 3.3 12.93 3.5 13.5 3.5C14.23 3.5 14.49 3.5 14.69 3.54C15.59 3.72 16.28 4.42 16.46 5.31C16.5 5.51 16.5 5.77 16.5 6.5V9.95C16.5 10.8 16.5 11.4 16.46 11.85C16.42 12.31 16.36 12.57 16.26 12.77C16.04 13.19 15.69 13.54 15.27 13.75C15.07 13.85 14.81 13.92 14.36 13.96C13.9 14 13.3 14 12.45 14H5.55C4.7 14 4.1 14 3.64 13.96C3.32651 13.9534 3.01736 13.8855 2.73 13.76C2.30311 13.5437 1.95632 13.1969 1.74 12.77C1.61453 12.4826 1.54658 12.1735 1.54 11.86C1.5 11.4 1.5 10.8 1.5 9.95V6.5C1.5 5.77 1.5 5.51 1.54 5.31C1.72 4.41 2.42 3.72 3.31 3.54C3.51 3.5 3.77 3.5 4.5 3.5ZM7.5 0C6.86 0 6.36 0.16 5.96 0.46C5.57 0.73 5.34 1.09 5.18 1.36L5.1 1.47C4.97 1.69 4.9 1.81 4.8 1.9C4.74 1.95 4.68 2 4.5 2H4.41C3.8 2 3.38 2 3.01 2.07C2.28325 2.21608 1.61609 2.57427 1.09281 3.09933C0.569531 3.62439 0.213607 4.29275 0.0700001 5.02C5.21541e-08 5.38 0 5.8 0 6.42V9.98C0 10.79 -3.72529e-08 11.45 0.04 11.98C0.09 12.53 0.18 13.01 0.41 13.45C0.77 14.15 1.34 14.73 2.05 15.09C2.49 15.32 2.97 15.41 3.52 15.46C4.05 15.5 4.7 15.5 5.52 15.5H12.48C13.29 15.5 13.95 15.5 14.48 15.46C14.9897 15.4356 15.4895 15.3098 15.95 15.09C16.65 14.73 17.23 14.16 17.59 13.45C17.82 13.01 17.91 12.53 17.96 11.98C18 11.45 18 10.79 18 9.98V6.41C18 5.8 18 5.38 17.93 5.01C17.7839 4.28325 17.4257 3.61609 16.9007 3.09281C16.3756 2.56953 15.7072 2.21361 14.98 2.07C14.5165 2.00301 14.0478 1.97958 13.58 2H13.5C13.32 2 13.26 1.95 13.2 1.9C13.1 1.8 13.03 1.7 12.9 1.47L12.82 1.35C12.66 1.09 12.42 0.73 12.04 0.45C11.64 0.16 11.14 0 10.5 0H7.5ZM11.25 8.25C11.25 8.54547 11.1918 8.83806 11.0787 9.11104C10.9657 9.38402 10.7999 9.63206 10.591 9.84099C10.3821 10.0499 10.134 10.2157 9.86104 10.3287C9.58806 10.4418 9.29547 10.5 9 10.5C8.70453 10.5 8.41194 10.4418 8.13896 10.3287C7.86598 10.2157 7.61794 10.0499 7.40901 9.84099C7.20008 9.63206 7.03434 9.38402 6.92127 9.11104C6.8082 8.83806 6.75 8.54547 6.75 8.25C6.75 7.65326 6.98705 7.08097 7.40901 6.65901C7.83097 6.23705 8.40326 6 9 6C9.59674 6 10.169 6.23705 10.591 6.65901C11.0129 7.08097 11.25 7.65326 11.25 8.25ZM12.75 8.25C12.75 8.74246 12.653 9.23009 12.4645 9.68506C12.2761 10.14 11.9999 10.5534 11.6517 10.9017C11.3034 11.2499 10.89 11.5261 10.4351 11.7145C9.98009 11.903 9.49246 12 9 12C8.50754 12 8.01991 11.903 7.56494 11.7145C7.10997 11.5261 6.69657 11.2499 6.34835 10.9017C6.00013 10.5534 5.72391 10.14 5.53545 9.68506C5.347 9.23009 5.25 8.74246 5.25 8.25C5.25 7.25544 5.64509 6.30161 6.34835 5.59835C7.05161 4.89509 8.00544 4.5 9 4.5C9.99456 4.5 10.9484 4.89509 11.6517 5.59835C12.3549 6.30161 12.75 7.25544 12.75 8.25Z"/>
</svg>
