<svg width="17" height="16" viewBox="0 0 17 16" xmlns="http://www.w3.org/2000/svg">
    <path fill-rule="evenodd" clip-rule="evenodd"
          d="M6.81267 0C3.05013 0 0 3.05013 0 6.81267C0 10.5752 3.05013 13.6253 6.81267 13.6253C10.5752 13.6253 13.6253 10.5752 13.6253 6.81267C13.6253 3.05013 10.5752 0 6.81267 0ZM15.7743 15.7071C15.3953 16.0928 14.7717 16.0983 14.3859 15.7192L11.6627 13.0434C12.1808 12.6395 12.647 12.1724 13.0502 11.6538L15.7622 14.3187C16.1479 14.6977 16.1534 15.3213 15.7743 15.7071ZM6.81267 1.89682C9.52761 1.89682 11.7285 4.09772 11.7285 6.81264C11.7285 9.52755 9.52758 11.7284 6.81267 11.7284C4.09772 11.7284 1.89686 9.52755 1.89686 6.81264C1.89686 4.09772 4.09775 1.89682 6.81267 1.89682Z"/>
    <path d="M9.80687 6.82414C10.0538 6.82414 10.2569 6.62315 10.2254 6.37824C10.1861 6.07232 10.1064 5.7723 9.98784 5.48613C9.81213 5.06193 9.55459 4.67649 9.22992 4.35182C8.90525 4.02716 8.51981 3.76961 8.09561 3.5939C7.80945 3.47537 7.50942 3.39564 7.20351 3.35631C6.95859 3.32482 6.75761 3.52794 6.75761 3.77487C6.75761 4.0218 6.95923 4.21808 7.20253 4.2603C7.39103 4.29302 7.57581 4.3465 7.75341 4.42006C8.06912 4.55083 8.35597 4.7425 8.59761 4.98414C8.83924 5.22577 9.03091 5.51263 9.16168 5.82834C9.23525 6.00594 9.28873 6.19071 9.32144 6.37922C9.36366 6.62251 9.55994 6.82414 9.80687 6.82414Z"/>
</svg>
