<svg width="24" height="24" viewBox="0 0 24 24" fill="none" xmlns="http://www.w3.org/2000/svg">
<g clip-path="url(#clip0_1630_950)">
<path d="M24 9.867V11.827C24 12.107 23.78 12.327 23.5 12.327C23.22 12.327 23 12.107 23 11.827V9.867C23 9.587 23.22 9.367 23.5 9.367C23.78 9.367 24 9.587 24 9.867Z" fill="#EDF2F7"/>
<path d="M24 21.497C24 21.567 24 21.647 23.99 21.717C23.97 21.977 23.75 22.167 23.49 22.167C23.48 22.167 23.46 22.167 23.45 22.167C23.17 22.147 22.97 21.897 22.99 21.627C23 21.587 23 21.547 23 21.497V19.697C23 19.427 23.22 19.197 23.5 19.197C23.78 19.197 24 19.427 24 19.697V21.497Z" fill="#EDF2F7"/>
<path d="M24 6.90702C24 7.18702 23.78 7.40702 23.5 7.40702C23.26 7.40702 23.06 7.23702 23.01 7.00702C23 6.97702 23 6.93702 23 6.90702V4.94702C23 4.66702 23.22 4.44702 23.5 4.44702C23.78 4.44702 24 4.66702 24 4.94702V6.90702Z" fill="#EDF2F7"/>
<path d="M23.5 14.277C23.78 14.277 24 14.507 24 14.777V16.747C24 17.027 23.78 17.247 23.5 17.247C23.22 17.247 23 17.027 23 16.747V14.777C23 14.507 23.22 14.277 23.5 14.277Z" fill="#EDF2F7"/>
<path d="M23.92 1.86701C23.99 2.13701 23.83 2.41701 23.56 2.47701C23.52 2.48701 23.48 2.49701 23.44 2.49701C23.21 2.49701 23.01 2.34701 22.95 2.11701C22.83 1.63701 22.47 1.24701 21.99 1.07701C21.78 1.00701 21.65 0.817012 21.65 0.607012C21.65 0.557012 21.66 0.497012 21.68 0.447012C21.77 0.187012 22.06 0.0470115 22.32 0.137011C23.11 0.407012 23.71 1.05701 23.92 1.86701Z" fill="#EDF2F7"/>
<path d="M22.01 23.497C22.01 23.777 21.8 23.997 21.52 23.997H19.53C19.26 23.997 19.03 23.777 19.03 23.497C19.03 23.227 19.26 22.997 19.53 22.997H21.5C21.78 22.997 22.01 23.227 22.01 23.497Z" fill="#EDF2F7"/>
<path d="M21 13.997C21 14.117 20.96 14.237 20.87 14.337C20.77 14.447 20.64 14.497 20.5 14.497C20.38 14.497 20.26 14.457 20.17 14.377L20 14.227V12.867L20.84 13.627C20.95 13.727 21 13.867 21 13.997Z" fill="#EDF2F7"/>
<path d="M19.21 -0.00299072C19.49 -0.00299072 19.71 0.227009 19.71 0.497009C19.71 0.537009 19.71 0.567009 19.7 0.597009C19.65 0.827009 19.46 0.997009 19.21 0.997009H17.25C16.97 0.997009 16.75 0.777009 16.75 0.497009C16.75 0.227009 16.97 -0.00299072 17.25 -0.00299072H19.21Z" fill="#EDF2F7"/>
<path d="M16.58 22.997C16.86 22.997 17.08 23.227 17.08 23.497C17.08 23.777 16.86 23.997 16.58 23.997H14.61C14.34 23.997 14.11 23.777 14.11 23.497C14.11 23.227 14.34 22.997 14.61 22.997H16.58Z" fill="#EDF2F7"/>
<path d="M20.87 14.337C20.96 14.237 21 14.117 21 13.997V16.497C21 17.327 20.33 17.997 19.5 17.997H16C16.15 17.997 16.29 17.937 16.39 17.817C16.56 17.597 16.53 17.287 16.31 17.107L16.17 16.997H19.5C19.77 16.997 20 16.777 20 16.497V14.227L20.17 14.377C20.26 14.457 20.38 14.497 20.5 14.497C20.64 14.497 20.77 14.447 20.87 14.337Z" fill="#EDF2F7"/>
<path d="M15.69 17.887L14.58 16.997H16.17L16.31 17.107C16.53 17.287 16.56 17.597 16.39 17.817C16.29 17.937 16.15 17.997 16 17.997C15.89 17.997 15.78 17.967 15.69 17.887Z" fill="#EDF2F7"/>
<path d="M10.88 12.757L15.18 9.11701C15.37 8.95701 15.65 8.95701 15.84 9.12701L20 12.867V14.227L15.49 10.167L11.67 13.397L10.88 12.757Z" fill="#EDF2F7"/>
<path d="M14.3 -0.00299072C14.57 -0.00299072 14.8 0.227009 14.8 0.497009C14.8 0.777009 14.57 0.997009 14.3 0.997009H12.33C12.05 0.997009 11.83 0.777009 11.83 0.497009C11.83 0.227009 12.05 -0.00299072 12.33 -0.00299072H14.3Z" fill="#EDF2F7"/>
<path d="M11.66 22.997C11.94 22.997 12.16 23.227 12.16 23.497C12.16 23.777 11.94 23.997 11.66 23.997H9.69C9.42 23.997 9.19 23.777 9.19 23.497C9.19 23.227 9.42 22.997 9.69 22.997H11.66Z" fill="#EDF2F7"/>
<path d="M11.2 13.797L11.67 13.397L16.17 16.997H14.58L10.62 13.837C10.8 13.947 11.03 13.937 11.2 13.797Z" fill="#EDF2F7"/>
<path d="M10.52 13.757L10.62 13.837C10.58 13.817 10.55 13.787 10.52 13.757Z" fill="#EDF2F7"/>
<path d="M10.88 12.757L11.67 13.397L11.2 13.797C11.03 13.937 10.8 13.947 10.62 13.837L10.52 13.757C10.51 13.747 10.51 13.747 10.5 13.737C10.32 13.527 10.35 13.207 10.56 13.027L10.88 12.757Z" fill="#EDF2F7"/>
<path d="M9.37998 -0.00299072C9.64998 -0.00299072 9.87998 0.227009 9.87998 0.497009C9.87998 0.777009 9.64998 0.997009 9.37998 0.997009H7.40997C7.12997 0.997009 6.90997 0.777009 6.90997 0.497009C6.90997 0.227009 7.12997 -0.00299072 7.40997 -0.00299072H9.37998Z" fill="#EDF2F7"/>
<path d="M8.48 12.127L4 15.257V14.037L8.21 11.087C8.4 10.967 8.64 10.967 8.81 11.107L10.88 12.757L10.56 13.027C10.35 13.207 10.32 13.527 10.5 13.737L8.48 12.127Z" fill="#EDF2F7"/>
<path d="M6.74002 22.997C7.02002 22.997 7.24002 23.227 7.24002 23.497C7.24002 23.777 7.02002 23.997 6.74002 23.997H4.77002C4.50002 23.997 4.27002 23.777 4.27002 23.497C4.27002 23.227 4.50002 22.997 4.77002 22.997H6.74002Z" fill="#EDF2F7"/>
<path d="M4.45999 -0.00299072C4.72999 -0.00299072 4.95999 0.227009 4.95999 0.497009C4.95999 0.777009 4.72999 0.997009 4.45999 0.997009H2.49999C2.31999 0.997009 2.16999 0.907009 2.07999 0.777009C2.01999 0.697009 1.98999 0.597009 1.98999 0.497009C1.98999 0.227009 2.20999 -0.00299072 2.48999 -0.00299072H4.45999Z" fill="#EDF2F7"/>
<path d="M3.21 14.587L4 14.037V15.257L3.79 15.407C3.56 15.567 3.25 15.517 3.09 15.287C3.03 15.197 3 15.097 3 14.997C3 14.837 3.07 14.687 3.21 14.587Z" fill="#EDF2F7"/>
<path d="M4 16.497C4 16.777 4.22 16.997 4.5 16.997H14.58L15.69 17.887C15.78 17.967 15.89 17.997 16 17.997H4.5C3.67 17.997 3 17.327 3 16.497V14.997C3 15.097 3.03 15.197 3.09 15.287C3.25 15.517 3.56 15.567 3.79 15.407L4 15.257V16.497Z" fill="#EDF2F7"/>
<path d="M4 7.49701V14.037L3.21 14.587C3.07 14.687 3 14.837 3 14.997V14.127V7.49701C3 6.67701 3.67 5.99701 4.5 5.99701H19.5C20.23 5.99701 20.83 6.51701 20.97 7.19701C20.99 7.29701 21 7.39701 21 7.49701V13.997C21 13.867 20.95 13.727 20.84 13.627L20 12.867V7.49701C20 7.22701 19.77 6.99701 19.5 6.99701H4.5C4.22 6.99701 4 7.22701 4 7.49701Z" fill="#EDF2F7"/>
<path d="M0.0800271 22.117C0.0100272 21.847 0.170027 21.577 0.440027 21.507C0.710027 21.437 0.980027 21.607 1.04003 21.867C1.17003 22.357 1.53003 22.747 2.00003 22.917C2.26003 23.007 2.40003 23.297 2.31003 23.557C2.23003 23.757 2.04003 23.887 1.84003 23.887C1.78003 23.887 1.72003 23.877 1.67003 23.857C0.880027 23.577 0.280027 22.927 0.0800271 22.117Z" fill="#EDF2F7"/>
<path d="M0.01 2.27702C0.03 2.01702 0.28 1.81702 0.53 1.81702H0.55C0.82 1.84702 1.03 2.08702 1.01 2.35702C1 2.40702 1 2.45702 1 2.49702V4.28702C1 4.56702 0.78 4.78702 0.5 4.78702C0.22 4.78702 0 4.56702 0 4.28702V2.49702C0 2.42702 0 2.35702 0.01 2.27702Z" fill="#EDF2F7"/>
<path d="M1 12.157V14.127C1 14.407 0.78 14.627 0.5 14.627C0.22 14.627 0 14.407 0 14.127V12.157C0 11.887 0.22 11.657 0.5 11.657C0.78 11.657 1 11.887 1 12.157Z" fill="#EDF2F7"/>
<path d="M1 7.237V9.207C1 9.487 0.78 9.707 0.5 9.707C0.22 9.707 0 9.487 0 9.207V7.237C0 6.967 0.22 6.737 0.5 6.737C0.78 6.737 1 6.967 1 7.237Z" fill="#EDF2F7"/>
<path d="M0.5 16.577C0.78 16.577 1 16.807 1 17.077V19.047C1 19.327 0.78 19.547 0.5 19.547C0.22 19.547 0 19.327 0 19.047V17.077C0 16.807 0.22 16.577 0.5 16.577Z" fill="#EDF2F7"/>
</g>
<defs>
<clipPath id="clip0_1630_950">
<rect width="24" height="24" fill="white"/>
</clipPath>
</defs>
</svg>
