<svg width="32" height="32" viewBox="0 0 32 32" xmlns="http://www.w3.org/2000/svg">
    <path d="M31.5266 18.7738L27.6536 19.7424C27.4481 20.3835 27.1916 21.0046 26.8879 21.5961L28.9403 25.0172C29.0878 25.2631 29.0491 25.5779 28.8463 25.7806L25.7807 28.8463C25.5778 29.0491 25.2631 29.0878 25.0172 28.9403L21.596 26.8878C21.0024 27.1925 20.3814 27.4491 19.7423 27.6537L18.7738 31.5266C18.7042 31.8048 18.4543 32 18.1675 32H13.8325C13.5457 32 13.2957 31.8048 13.2262 31.5266L12.2577 27.6538C11.6185 27.4492 10.9976 27.1926 10.404 26.8879L6.98281 28.9404C6.73687 29.0879 6.42212 29.0492 6.21931 28.8464L3.15369 25.7807C2.95094 25.5779 2.91219 25.2631 3.05969 25.0173L5.11212 21.5961C4.80844 21.0046 4.55187 20.3836 4.34644 19.7424L0.473375 18.7738C0.195187 18.7043 0 18.4543 0 18.1675V13.8325C0 13.5458 0.195187 13.2958 0.473375 13.2262L4.34644 12.2576C4.55187 11.6165 4.80844 10.9954 5.11212 10.4039L3.05969 6.98282C2.91219 6.73688 2.95094 6.42213 3.15369 6.21938L6.21931 3.15369C6.42219 2.95088 6.73687 2.91219 6.98281 3.05969L10.4041 5.11225C10.9968 4.80813 11.6178 4.55157 12.2576 4.3465L13.2262 0.473442C13.2957 0.195255 13.5457 6.67572e-05 13.8325 6.67572e-05H18.1674C18.4542 6.67572e-05 18.7042 0.195255 18.7737 0.473442L19.7423 4.3465C20.3821 4.55157 21.0031 4.80813 21.5959 5.11225L25.0171 3.05969C25.263 2.91219 25.5778 2.95094 25.7806 3.15369L28.8462 6.21938C29.049 6.42213 29.0877 6.73694 28.9402 6.98282L26.8878 10.4039C27.1915 10.9954 27.4481 11.6165 27.6535 12.2576L31.5266 13.2262C31.8047 13.2958 31.9999 13.5458 31.9999 13.8325V18.1675C32 18.4543 31.8048 18.7043 31.5266 18.7738V18.7738ZM30.75 14.3204L27.0071 13.3844C26.791 13.3304 26.62 13.1654 26.5582 12.9514C26.3294 12.1584 26.0147 11.3969 25.6229 10.6879C25.5151 10.4929 25.5194 10.2552 25.634 10.0641L27.6173 6.75813L25.2417 4.38257L21.9358 6.36588C21.7448 6.48044 21.5073 6.48469 21.3122 6.37713C20.6009 5.9845 19.8392 5.66982 19.0485 5.44169C18.8344 5.37994 18.6694 5.20888 18.6154 4.99282L17.6795 1.25H14.3205L13.3844 4.99288C13.3304 5.209 13.1654 5.38 12.9513 5.44175C12.1606 5.66982 11.3989 5.98457 10.6876 6.37719C10.4926 6.48475 10.255 6.4805 10.064 6.36594L6.75806 4.38263L4.38262 6.75813L6.36594 10.0641C6.48056 10.2552 6.48481 10.4929 6.377 10.6879C5.98519 11.3969 5.6705 12.1584 5.44175 12.9514C5.38 13.1654 5.20894 13.3304 4.99281 13.3844L1.25 14.3204V17.6796L4.99287 18.6156C5.209 18.6696 5.38 18.8346 5.44181 19.0486C5.67056 19.8416 5.98525 20.6031 6.37706 21.3121C6.48494 21.5071 6.48062 21.7448 6.366 21.9359L4.38262 25.2419L6.75819 27.6174L10.0641 25.6341C10.2552 25.5195 10.4928 25.5153 10.6878 25.6229C11.4004 26.0164 12.1619 26.3311 12.9511 26.5582C13.1653 26.6198 13.3304 26.7909 13.3846 27.0072L14.3205 30.75H17.6795L18.6156 27.0071C18.6696 26.7909 18.8348 26.6198 19.0491 26.5581C19.8382 26.3311 20.5997 26.0164 21.3123 25.6229C21.5073 25.5152 21.745 25.5194 21.936 25.6341L25.2419 27.6174L27.6175 25.2418L25.6342 21.9359C25.5196 21.7448 25.5153 21.5071 25.6231 21.312C26.0149 20.6031 26.3296 19.8416 26.5584 19.0486C26.6201 18.8345 26.7912 18.6696 27.0073 18.6155L30.75 17.6796V14.3204Z"
    />
    <path d="M21.875 10.125C22.2202 10.125 22.5 10.4048 22.5 10.75C22.5 11.0952 22.2202 11.375 21.875 11.375C21.5298 11.375 21.25 11.0952 21.25 10.75C21.25 10.4048 21.5298 10.125 21.875 10.125Z"
    />
    <path d="M16 24.5C11.3131 24.5 7.5 20.6869 7.5 16C7.5 11.3131 11.3131 7.5 16 7.5C17.3722 7.5 18.7366 7.83619 19.9457 8.47231C20.2512 8.63306 20.3686 9.011 20.2078 9.31644C20.0469 9.62187 19.669 9.73925 19.3636 9.57856C18.3334 9.0365 17.1702 8.75 16 8.75C12.0023 8.75 8.75 12.0024 8.75 16C8.75 19.9976 12.0023 23.25 16 23.25C19.9977 23.25 23.25 19.9976 23.25 16C23.25 15.0953 23.0848 14.2124 22.7589 13.3762C22.6336 13.0546 22.7927 12.6923 23.1144 12.5669C23.4363 12.4416 23.7984 12.6007 23.9236 12.9223C24.3061 13.9039 24.5 14.9394 24.5 16C24.5 20.6869 20.6869 24.5 16 24.5Z"
    />
</svg>
