<svg width="32" height="24" viewBox="0 0 32 24" xmlns="http://www.w3.org/2000/svg">
    <path d="M1.41457 13.3283C1.41457 12.6891 1.47945 12.05 1.60795 11.4256L1.65964 11.1665C1.7992 10.4665 1.97639 9.77283 2.18882 9.09014C2.3297 9.06108 2.4732 9.0397 2.61901 9.02708C3.26807 8.97108 3.9052 9.08489 4.46151 9.35639C4.69182 9.46895 4.96995 9.37333 5.08239 9.14283C5.19489 8.91245 5.09932 8.63439 4.86882 8.52195C4.16126 8.17645 3.35551 8.03107 2.53889 8.10195C2.5337 8.10239 2.52857 8.10308 2.52332 8.10357C2.64145 7.78251 2.93301 7.07632 2.94895 7.03945C3.42845 7.13989 3.86814 7.33595 4.23739 7.61739C4.43951 7.77195 4.73189 7.73464 4.88807 7.52951C5.04351 7.32558 5.0042 7.03426 4.8002 6.87883C4.18701 6.41151 3.43164 6.12564 2.61564 6.0522C1.8047 5.97895 0.992448 6.1212 0.266448 6.46289C0.0343853 6.57214 -0.0651147 6.84876 0.0440728 7.08076C0.15326 7.31289 0.43001 7.4122 0.661948 7.30314C1.07107 7.11051 1.51532 6.99833 1.96989 6.96983C1.78457 7.41626 1.61401 7.86926 1.45926 8.32782C1.0482 8.46745 0.662323 8.66482 0.31551 8.91607C0.107885 9.06658 0.0614478 9.35689 0.211885 9.56458C0.363323 9.77358 0.65476 9.81764 0.860385 9.6682C0.93701 9.6127 1.01639 9.56089 1.09776 9.51207C0.964135 9.99907 0.847385 10.4905 0.74876 10.985L0.697698 11.2413C0.557073 11.9243 0.485823 12.6264 0.485823 13.3284C0.485823 15.5451 1.17945 17.6569 2.49176 19.4355C2.58282 19.5589 2.72332 19.6241 2.86576 19.6241C2.96151 19.6241 3.05814 19.5946 3.14107 19.5335C3.34745 19.3812 3.39126 19.0904 3.23901 18.8841C2.04551 17.2663 1.41457 15.3451 1.41457 13.3283Z"
    />
    <path d="M3.43739 4.99456C3.66358 5.11574 3.94489 5.03049 4.06583 4.80443L5.80908 1.54899C5.92083 1.40168 6.0897 1.31712 6.27614 1.31624H6.27908C6.47233 1.31624 6.64733 1.40631 6.75964 1.56368L8.39446 3.85418C8.54333 4.06268 8.80258 4.16681 9.05502 4.11981C9.62189 4.01406 10.203 3.96049 10.7824 3.96049H12.7962C13.0095 3.96049 13.2108 3.85687 13.3351 3.68306L14.8565 1.55149C14.9687 1.39424 15.144 1.30399 15.3371 1.30399C15.5304 1.30399 15.7056 1.39418 15.8178 1.55149L17.3394 3.68337C17.4635 3.85687 17.6648 3.96049 17.8781 3.96049H19.3405C21.0608 3.96049 22.7426 4.43081 24.2041 5.32056C24.2795 5.36643 24.3628 5.38831 24.4451 5.38831C24.6018 5.38831 24.7548 5.30899 24.8421 5.16537C24.9755 4.94631 24.906 4.66068 24.687 4.52731C23.08 3.54899 21.2311 3.03181 19.3405 3.03181H18.0153L16.5737 1.01187C16.2892 0.613244 15.827 0.375244 15.3371 0.375244C14.8474 0.375307 14.3851 0.613307 14.1006 1.01193L12.659 3.03181H10.7824C10.203 3.03181 9.62183 3.08068 9.05221 3.17706L7.51552 1.02399C7.23071 0.625057 6.76883 0.387432 6.27895 0.387432C6.27652 0.387432 6.27414 0.387432 6.27171 0.387432C5.77908 0.389807 5.31646 0.632182 5.03414 1.03581C5.02364 1.05087 5.01396 1.06649 5.00533 1.08281L3.24727 4.36599C3.12614 4.59212 3.21127 4.87349 3.43739 4.99456Z"
    />
    <path d="M31.6208 4.05204C31.339 3.7106 30.9411 3.49941 30.4998 3.45716C29.5907 3.37185 28.7799 4.04079 28.693 4.94904C28.6123 5.79198 28.0684 6.49435 27.2885 6.78329C27.01 6.44554 26.7085 6.1236 26.3901 5.82447C26.2033 5.64879 25.9094 5.65798 25.7338 5.84479C25.5582 6.03166 25.5673 6.32554 25.7541 6.5011C26.0865 6.81341 26.3988 7.15304 26.6823 7.51041C26.846 7.71679 27.1159 7.80397 27.3698 7.73254C28.612 7.38304 29.4941 6.3251 29.6173 5.03747C29.6555 4.6381 30.0125 4.34335 30.412 4.3816C30.812 4.41985 31.1061 4.77635 31.0679 5.17622C30.9707 6.19129 30.5279 7.1571 29.821 7.89579C29.4032 8.33235 28.9074 8.67804 28.3473 8.92335C28.0258 9.06404 27.8727 9.44191 28.006 9.7656C28.1964 10.2283 28.3496 10.7086 28.4631 11.1953C27.7157 11.0063 26.9468 10.9103 26.1691 10.9103C21.0165 10.9103 16.8246 15.1022 16.8246 20.2548C16.8246 21.0837 16.9333 21.9024 17.1478 22.696H10.7823C8.44458 22.696 6.20589 21.8301 4.47858 20.2578C4.28889 20.0851 3.99514 20.0989 3.82264 20.2885C3.64996 20.4782 3.66383 20.7718 3.85339 20.9445C5.75208 22.6728 8.21277 23.6246 10.7823 23.6246H17.325C17.7798 23.6246 18.2073 23.4475 18.5288 23.1259L28.9437 12.711C29.3545 12.3002 29.5271 11.7173 29.4053 11.1518C29.2965 10.646 29.148 10.1456 28.9631 9.66054C29.5371 9.37604 30.0503 8.99916 30.4918 8.53791C31.3424 7.64904 31.8752 6.4866 31.9922 5.26479C32.0344 4.8241 31.9025 4.39347 31.6208 4.05204ZM18.0125 22.3291C17.8408 21.6534 17.7533 20.9583 17.7533 20.2548C17.7533 15.6144 21.5286 11.839 26.1691 11.839C26.8725 11.839 27.5676 11.927 28.2431 12.0985L27.4615 12.8801C27.255 12.8442 27.0469 12.8158 26.8388 12.7973C26.5841 12.7753 26.3579 12.9633 26.3352 13.2187C26.316 13.4348 26.4483 13.6288 26.6441 13.6975L19.6269 20.7147C19.6163 20.562 19.6115 20.1245 19.6135 20.0597C19.621 19.8033 19.4194 19.5894 19.163 19.5818C18.9092 19.5747 18.6928 19.7759 18.6851 20.0322C18.683 20.1062 18.695 20.7679 18.7207 21.0205C18.7368 21.1787 18.8309 21.31 18.9608 21.3808L18.0125 22.3291Z"
    />
    <path d="M10.8242 7.43054C10.5678 7.43054 10.3599 7.63842 10.3599 7.89485V8.64185C10.2232 8.78085 10.0364 8.8621 9.83849 8.8621C9.59774 8.8621 9.37218 8.74335 9.23499 8.54454C9.08943 8.33348 8.80037 8.28035 8.58912 8.42598C8.37805 8.57154 8.32499 8.86073 8.47055 9.07185C8.78105 9.52204 9.29243 9.79079 9.83849 9.79079C10.1981 9.79079 10.5422 9.67367 10.8242 9.46554C11.1062 9.67367 11.4504 9.79079 11.8099 9.79079C12.3561 9.79079 12.8674 9.52198 13.1779 9.07185C13.3234 8.86073 13.2704 8.57154 13.0592 8.42604C12.8482 8.28042 12.5589 8.33354 12.4134 8.54467C12.2763 8.74354 12.0507 8.86217 11.8099 8.86217C11.6121 8.86217 11.4252 8.78098 11.2886 8.64198V7.89492C11.2886 7.63835 11.0807 7.43054 10.8242 7.43054Z"
    />
    <path d="M6.60596 7.05538C6.60596 7.39826 6.88389 7.6762 7.22677 7.6762C7.56964 7.6762 7.84758 7.39826 7.84758 7.05538C7.84758 6.71251 7.56964 6.43457 7.22677 6.43457C6.88389 6.43457 6.60596 6.71251 6.60596 7.05538Z"
    />
    <path d="M14.4216 7.6762C14.7645 7.6762 15.0424 7.39825 15.0424 7.05538C15.0424 6.71252 14.7645 6.43457 14.4216 6.43457C14.0787 6.43457 13.8008 6.71252 13.8008 7.05538C13.8008 7.39825 14.0787 7.6762 14.4216 7.6762Z"
    />
    <path d="M19.1095 8.10196C18.2929 8.03109 17.4871 8.17652 16.7795 8.52196C16.5491 8.6344 16.4535 8.91246 16.566 9.14284C16.6784 9.37321 16.9564 9.46909 17.1868 9.3564C17.7431 9.08484 18.38 8.97084 19.0294 9.02709C19.6785 9.08334 20.2866 9.30496 20.7878 9.66809C20.9933 9.81759 21.2849 9.77352 21.4363 9.56452C21.5868 9.35684 21.5404 9.06652 21.3327 8.91609C20.6952 8.45415 19.9264 8.17265 19.1095 8.10196Z"
    />
    <path d="M21.604 7.08065C21.7132 6.84865 21.6137 6.57203 21.3817 6.46284C20.6557 6.12109 19.8433 5.97915 19.0326 6.05209C18.2165 6.12553 17.4611 6.4114 16.8479 6.87871C16.644 7.03415 16.6047 7.32553 16.7601 7.52947C16.9163 7.73447 17.2087 7.77178 17.4108 7.61728C17.8847 7.25609 18.4742 7.03472 19.1158 6.97697C19.7625 6.91884 20.4092 7.03147 20.986 7.30303C21.218 7.41203 21.4947 7.31259 21.604 7.08065Z"
    />
    <path d="M19.3889 18.3629C19.6243 18.4478 19.8963 18.3236 19.9812 18.0794C20.0768 17.8081 20.1918 17.5403 20.3228 17.2837C20.4395 17.0552 20.3488 16.7756 20.1204 16.659C19.8918 16.5424 19.6123 16.6331 19.4958 16.8615C19.3461 17.1548 19.2147 17.4606 19.1054 17.7707C19.0201 18.0125 19.1471 18.2776 19.3889 18.3629Z"
    />
    <path d="M23.7537 14.1244C23.8068 14.1244 23.8609 14.1153 23.9137 14.0958C24.1842 13.9964 24.4639 13.9143 24.745 13.8519C24.9954 13.7963 25.1532 13.5483 25.0976 13.2979C25.042 13.0476 24.7939 12.8897 24.5437 12.9454C24.2223 13.0168 23.9025 13.1106 23.5934 13.2241C23.3527 13.3126 23.2292 13.5794 23.3177 13.8201C23.3868 14.0079 23.5645 14.1244 23.7537 14.1244Z"
    />
    <path d="M21.1733 15.788C21.2932 15.788 21.413 15.7419 21.5038 15.6499C21.7063 15.4447 21.9244 15.251 22.1519 15.0741C22.3544 14.9168 22.391 14.6251 22.2336 14.4226C22.0762 14.22 21.7845 14.1836 21.582 14.3409C21.3225 14.5426 21.0739 14.7635 20.8428 14.9975C20.6627 15.18 20.6646 15.474 20.8472 15.6541C20.9376 15.7435 21.0555 15.788 21.1733 15.788Z"
    />
</svg>
