<svg width="21" height="20" viewBox="0 0 21 20" fill="none" xmlns="http://www.w3.org/2000/svg">
<path d="M10.4999 4.4729C7.05869 4.4729 4.25732 7.14087 4.25732 10.4182C4.25732 13.6956 7.05869 16.3635 10.4999 16.3635C13.9411 16.3635 16.7425 13.6956 16.7425 10.4182C16.7425 7.13696 13.9411 4.4729 10.4999 4.4729ZM10.4999 14.7659C7.98154 14.7659 5.93076 12.8127 5.93076 10.4143C5.93076 8.01587 7.98154 6.06274 10.4999 6.06274C13.0183 6.06274 15.069 8.01587 15.069 10.4143C15.069 12.8127 13.0183 14.7659 10.4999 14.7659Z" fill="white"/>
<path d="M10.4999 3.27368C10.9634 3.27368 11.3366 2.91821 11.3366 2.47681V1.57837C11.3366 1.13696 10.9634 0.781494 10.4999 0.781494C10.0364 0.781494 9.66321 1.13696 9.66321 1.57837V2.47681C9.66321 2.91821 10.0364 3.27368 10.4999 3.27368Z" fill="white"/>
<path d="M10.4999 17.4299C10.0364 17.4299 9.66321 17.7854 9.66321 18.2268V19.1213C9.66321 19.5627 10.0364 19.9182 10.4999 19.9182C10.9634 19.9182 11.3366 19.5627 11.3366 19.1213V18.2268C11.3366 17.7893 10.9634 17.4299 10.4999 17.4299Z" fill="white"/>
<path d="M19.712 9.55493H18.7686C18.3051 9.55493 17.9319 9.9104 17.9319 10.3518C17.9319 10.7932 18.3051 11.1487 18.7686 11.1487H19.712C20.1754 11.1487 20.5487 10.7932 20.5487 10.3518C20.5487 9.9104 20.1754 9.55493 19.712 9.55493Z" fill="white"/>
<path d="M2.23113 9.55493H1.28777C0.824292 9.55493 0.45105 9.9104 0.45105 10.3518C0.45105 10.7932 0.824292 11.1487 1.28777 11.1487H2.22703C2.6905 11.1487 3.06374 10.7932 3.06374 10.3518C3.06785 9.9104 2.6905 9.55493 2.23113 9.55493Z" fill="white"/>
<path d="M16.4226 3.58618L15.754 4.21899C15.4259 4.53149 15.4259 5.0354 15.754 5.3479C16.0822 5.6604 16.6113 5.6604 16.9394 5.3479L17.6038 4.71509C17.932 4.40259 17.932 3.89868 17.6038 3.58618C17.2757 3.27368 16.7466 3.27368 16.4226 3.58618Z" fill="white"/>
<path d="M4.06045 15.3557L3.396 15.9885C3.06787 16.301 3.06787 16.8049 3.396 17.1174C3.72412 17.4299 4.25322 17.4299 4.58135 17.1174L5.2458 16.4846C5.57393 16.1721 5.57393 15.6682 5.2458 15.3557C4.91768 15.0432 4.38857 15.0471 4.06045 15.3557Z" fill="white"/>
<path d="M16.9394 15.3557C16.6113 15.0432 16.0822 15.0432 15.754 15.3557C15.4259 15.6682 15.4259 16.1721 15.754 16.4846L16.4185 17.1174C16.7466 17.4299 17.2757 17.4299 17.6038 17.1174C17.932 16.8049 17.932 16.301 17.6038 15.9885L16.9394 15.3557Z" fill="white"/>
<path d="M4.06045 5.3479C4.38857 5.6604 4.91768 5.6604 5.2458 5.3479C5.57393 5.0354 5.57393 4.53149 5.2458 4.21899L4.58135 3.58618C4.25322 3.27368 3.72412 3.27368 3.396 3.58618C3.06787 3.89868 3.06787 4.40259 3.396 4.71509L4.06045 5.3479Z" fill="white"/>
</svg>
