<svg width="32" height="30" viewBox="0 0 32 30" xmlns="http://www.w3.org/2000/svg">
    <path d="M8.54604 7.9605C8.2956 7.89582 8.03967 8.04644 7.97492 8.29707L7.79092 9.00894C7.7261 9.25957 7.87679 9.51532 8.12742 9.58007C8.37704 9.64451 8.63354 9.49526 8.69854 9.24357L8.88254 8.53169C8.94729 8.281 8.79667 8.02532 8.54604 7.9605Z"
    />
    <path d="M15.9549 9.8755C15.7044 9.81081 15.4485 9.96143 15.3837 10.2121L15.1997 10.9239C15.1228 11.2216 15.3483 11.51 15.6539 11.51C15.8625 11.51 16.0528 11.3697 16.1074 11.1584L16.2914 10.4466C16.3561 10.196 16.2055 9.94031 15.9549 9.8755Z"
    />
    <path d="M13.5196 11.1306C13.2692 11.0658 13.0133 11.2165 12.9485 11.4671C12.9206 11.5749 12.8524 11.6654 12.7565 11.722C12.4372 11.9101 12.0489 11.6156 12.1412 11.2584L12.2504 10.8362L12.4632 10.8912C12.7131 10.9557 12.9694 10.8061 13.0343 10.5547C13.0991 10.3041 12.9484 10.0483 12.6978 9.98349L11.3646 9.63887C11.1141 9.57418 10.8582 9.72474 10.7934 9.97543C10.7286 10.2261 10.8793 10.4818 11.1299 10.5466L11.3428 10.6016L11.2336 11.0238C11.2057 11.1317 11.1375 11.2222 11.0416 11.2787C10.7244 11.4656 10.3331 11.1756 10.4263 10.8151C10.4911 10.5645 10.3404 10.3087 10.0898 10.244C9.839 10.1792 9.58338 10.3298 9.51857 10.5805C9.22707 11.7082 10.4023 12.6454 11.4318 12.1327C12.0899 13.0856 13.5664 12.8225 13.8562 11.7017C13.9209 11.4511 13.7703 11.1954 13.5196 11.1306Z"
    />
    <path d="M20.5387 13.5089C20.2883 13.4442 20.0324 13.5948 19.9676 13.8454L19.802 14.4859C19.7251 14.7836 19.9505 15.0721 20.2562 15.0721C20.4648 15.0721 20.6551 14.9319 20.7097 14.7206L20.8753 14.0801C20.94 13.8294 20.7894 13.5737 20.5387 13.5089Z"
    />
    <path d="M27.2057 15.2321C26.955 15.1674 26.6993 15.318 26.6346 15.5687L26.469 16.2093C26.3921 16.5069 26.6176 16.7954 26.9232 16.7954C27.1318 16.7954 27.3221 16.6551 27.3767 16.4438L27.5423 15.8033C27.607 15.5526 27.4563 15.2969 27.2057 15.2321Z"
    />
    <path d="M25.0142 16.3615C24.7638 16.2969 24.5079 16.4474 24.4431 16.6981C24.4211 16.7829 24.3674 16.8542 24.2919 16.8987C24.0417 17.0462 23.7344 16.8165 23.8076 16.5338C23.8724 16.2831 23.7217 16.0274 23.4711 15.9626C23.2207 15.8978 22.9647 16.0485 22.8999 16.2991C22.8546 16.4744 22.6753 16.5801 22.5 16.5348C22.3248 16.4895 22.2191 16.3101 22.2643 16.1349C22.3291 15.8842 22.1784 15.6285 21.9278 15.5637C21.6774 15.499 21.4214 15.6496 21.3566 15.9002C21.0919 16.9246 22.1373 17.811 23.1069 17.3674C23.7334 18.2196 25.084 17.9649 25.3508 16.9327C25.4155 16.682 25.2648 16.4263 25.0142 16.3615Z"
    />
    <path d="M24.5941 8.11893C24.7309 8.31506 24.957 8.43824 25.2139 8.43387C33.2905 8.25874 31.6325 1.82312 27.8347 2.50906C26.1474 -0.96875 19.9769 1.49581 24.5941 8.11893ZM27.1107 3.21075C27.1924 3.452 27.452 3.58368 27.6949 3.50762C30.4768 2.63569 31.9612 7.30012 25.3017 7.49374C21.5316 1.9995 26.1749 0.449187 27.1107 3.21075Z"
    />
    <path d="M26.8866 29.0654C27.5385 29.0654 28.1483 28.8082 28.6035 28.3414C29.0568 27.8765 29.2974 27.2637 29.281 26.6159C29.2657 26.0071 29.2018 25.4109 29.0914 24.8437C29.0419 24.5896 28.7955 24.4237 28.5416 24.4732C28.2875 24.5227 28.1216 24.7688 28.1711 25.023C28.2717 25.5391 28.3297 26.0829 28.3438 26.6396C28.3537 27.0326 28.2075 27.4045 27.9322 27.6869C27.6549 27.9712 27.2836 28.1277 26.8866 28.1277H25.3674C26.1667 26.4492 25.7526 24.3497 25.7317 24.2474C25.6798 23.994 25.4325 23.8307 25.179 23.8822C24.9255 23.9337 24.7617 24.1812 24.8129 24.4347C24.8177 24.4585 25.2618 26.7336 24.2876 28.1277H22.9369V24.3414C22.9369 24.0825 22.727 23.8726 22.4681 23.8726C22.2092 23.8726 21.9993 24.0824 21.9993 24.3414V28.1277H20.6485C19.6748 26.7343 20.118 24.4608 20.1232 24.4347C20.1748 24.1812 20.0112 23.9339 19.7578 23.8821C19.504 23.8301 19.2565 23.9937 19.2045 24.2474C19.1836 24.3498 18.7696 26.4492 19.5688 28.1277H18.0496C17.2305 28.1277 16.5718 27.4554 16.5925 26.6395C16.6633 23.8341 17.8316 21.7741 19.3576 20.6662C21.302 22.3304 24.1234 22.6384 26.4101 21.4141C26.8061 21.8455 27.2833 22.4857 27.6603 23.3562C27.7632 23.5937 28.0391 23.7029 28.2768 23.6001C28.5143 23.4972 28.6235 23.2211 28.5207 22.9836C28.1881 22.2157 27.7398 21.5052 27.2095 20.9012C28.5547 19.8962 29.4323 18.4126 29.6725 16.7497C31.304 16.0649 32.0769 14.3777 31.994 12.5879C31.9778 12.2375 31.8051 11.9192 31.5202 11.7147C30.2201 10.7812 28.7303 10.5329 27.4705 11.0229C26.1377 9.91099 24.3908 9.40074 22.688 9.60431C22.5789 9.45274 22.4585 9.31068 22.3277 9.17843C22.4432 7.05212 21.9415 5.58474 20.8346 4.8153C19.2625 3.7223 17.0181 4.4498 16.2894 4.73393C14.6968 3.7928 12.8961 3.45824 11.1598 3.68549C10.8342 3.39112 10.082 2.79587 9.02333 2.47593C6.65095 1.75924 4.66838 2.96624 3.42295 4.10499C2.26782 5.16106 1.55744 6.22268 1.31144 7.26037C1.09763 8.16237 1.25419 9.00849 1.75238 9.64306C2.13295 10.1278 2.65376 10.4166 3.1817 10.481C2.87851 11.0293 2.59532 11.5957 2.33307 12.1797C2.22701 12.4159 2.33251 12.6934 2.56863 12.7995C2.80482 12.9056 3.08232 12.8001 3.18838 12.5639C3.59876 11.6502 4.06263 10.7822 4.57588 9.96193C5.3252 8.76468 6.57951 7.13681 7.59895 6.25399C10.9614 3.36112 16.1726 4.26537 18.3683 8.14743C18.2411 8.23137 18.138 8.31987 18.0431 8.45218C17.0045 9.89874 16.724 11.7512 17.7211 13.2074C16.6951 15.4291 17.0142 18.0882 18.6814 19.998C17.0761 21.2301 15.8228 23.3749 15.6683 26.2929C15.6298 27.0202 15.691 27.5361 16.1472 28.1279H12.9838C15.0685 24.9956 14.6713 20.6627 14.6517 20.4645C14.6263 20.2069 14.3968 20.0186 14.1391 20.044C13.8815 20.0694 13.6932 20.2989 13.7186 20.5565C13.7233 20.6043 14.1529 25.2771 11.8193 28.128H9.47633C9.3297 23.6967 9.82389 21.3456 10.1156 20.7103C10.2253 20.4774 10.1266 20.1993 9.8942 20.0879C9.66083 19.9759 9.3807 20.0744 9.26876 20.3079C9.23008 20.3886 8.34726 22.3038 8.53826 28.128H6.75676C4.47226 25.3082 5.45876 20.659 5.4692 20.6114C5.52489 20.3587 5.36532 20.1087 5.11264 20.0528C4.85995 19.997 4.60957 20.1565 4.55363 20.4093C4.5417 20.4634 4.26132 21.753 4.31332 23.4365C4.37038 25.2851 4.81388 26.8858 5.60476 28.1281H4.49195C2.68307 28.1281 1.17163 26.7479 1.01363 24.9479C0.703506 21.4136 1.36951 17.4307 2.50457 14.2634C2.59188 14.0196 2.46513 13.7512 2.22138 13.6639C1.97769 13.5766 1.70926 13.7034 1.62194 13.9471C0.443881 17.234 -0.243119 21.3524 0.0796308 25.0296C0.176568 26.1345 0.681444 27.1556 1.50119 27.9047C2.32013 28.6532 3.38232 29.0654 4.49195 29.0654H26.8866ZM3.77676 9.46912C3.38245 9.66924 2.83438 9.50287 2.48988 9.06406C1.53332 7.84562 2.73551 6.00387 4.05557 4.79693C5.37489 3.59074 6.5867 3.20112 7.6022 3.20112C8.60795 3.20112 9.42114 3.58349 9.95476 3.93355C7.80214 4.55705 6.4682 5.84249 5.03901 7.66799C4.59395 8.23668 4.15676 8.86181 3.77676 9.46912ZM30.9733 12.4763C31.0238 12.5126 31.0545 12.5691 31.0573 12.6313C31.1187 13.9561 30.6274 15.0692 29.734 15.6589C29.6894 14.2352 29.1547 12.8644 28.2276 11.7732C29.0977 11.5925 30.0827 11.8368 30.9733 12.4763ZM18.7314 9.10406C18.8658 8.90593 18.86 8.91318 19.1338 8.91074C20.056 8.90212 20.9895 9.17187 21.6442 9.82106C20.3274 10.2142 19.1103 11.0447 18.2651 12.2606C17.9015 11.4281 17.9733 10.2217 18.7314 9.10406ZM21.4065 8.49693C20.7632 8.15506 20.0661 8.00062 19.341 7.97474C18.8312 6.99462 18.1588 6.13362 17.2514 5.40099C19.8983 4.65318 21.3771 5.62881 21.4065 8.49693ZM24.6741 21.0776C20.1601 22.1461 16.4431 17.3282 18.7728 13.2128C20.471 10.2223 24.5373 9.57918 27.067 11.9169C28.5788 13.3109 29.1493 15.4504 28.5754 17.3861C28.0113 19.2891 26.4783 20.6456 24.6741 21.0776Z"
    />
</svg>
